<svg id="Layer_1" data-name="Layer 1" xmlns="http://www.w3.org/2000/svg" viewBox="0 0 609.48 153.85"><path d="M-4.42,452.14a47.85,47.85,0,0,1,2.05-13.6c.35-1.16.78-1.47,2-1,3.68,1.42,7.41,2.69,11.15,3.95,1.09.37,1.46.76,1.1,2-4.85,16.65,5,33,22,36.59,16.11,3.38,32.49-8.77,33.94-25.19,1.53-17.41-11.19-31.51-28.71-31.81A25.63,25.63,0,1,1,63,387.48c.56,1.33.26,1.82-1.05,2.25-3.64,1.19-7.26,2.45-10.83,3.83-1.3.5-1.8.22-2.41-1a10.48,10.48,0,0,0-11.49-5.52,10.61,10.61,0,0,0-.92,20.55,14.72,14.72,0,0,0,4,.5,43.76,43.76,0,0,1,42.25,36.68c4.06,23.8-12.89,47-36.73,50.32-22.6,3.11-43-10.4-48.86-32.37A45.47,45.47,0,0,1-4.42,452.14Z" transform="translate(22.61 -342.81)" style="fill:#4f89c8"/><path d="M87.28,456.25c.66,1.83,1.34,3.65,2,5.48q5.8,16.38,11.6,32.79c.74,2.11.74,2.11-1.49,2.11-4.11,0-8.23,0-12.34,0a1.63,1.63,0,0,1-1.84-1.28c-1.86-5.37-3.78-10.72-5.69-16.08a1.84,1.84,0,0,1,.06-1.76,47.48,47.48,0,0,0,7.3-21.2Z" transform="translate(22.61 -342.81)" style="fill:#242d67"/><path d="M-8.23,456.27a70.75,70.75,0,0,0,1.33,7.4,45.41,45.41,0,0,0,5.62,13.14,3,3,0,0,1,.3,3c-1.84,5.07-3.65,10.16-5.39,15.27a2,2,0,0,1-2.32,1.61c-4.22-.09-8.44-.06-12.67,0-1.13,0-1.52-.21-1.08-1.43q6.78-19,13.49-38C-8.83,456.87-8.88,456.4-8.23,456.27Z" transform="translate(22.61 -342.81)" style="fill:#242d67"/><path d="M20.39,374.15q1.77-5,3.52-10c2.32-6.58,4.67-13.15,6.94-19.74a2,2,0,0,1,2.3-1.62c4.16.09,8.33.06,12.5,0,1.26,0,1.72.16,1.21,1.57-2.67,7.41-5.27,14.85-7.88,22.28-.24.68-.53,1.18-1.37,1.23a29.82,29.82,0,0,0-16.9,6.54Z" transform="translate(22.61 -342.81)" style="fill:#242d67"/><path d="M33.16,450.11a7.77,7.77,0,0,0,1.59,5.09,5.56,5.56,0,0,0,4.54,1.93,5.54,5.54,0,0,0,4.53-1.93,7.77,7.77,0,0,0,1.6-5.09V433.16a19.33,19.33,0,0,0-6.06-1,19.55,19.55,0,0,0-6.2,1Z" transform="translate(22.61 -342.81)" style="fill:#faa950"/><path d="M51.12,436.15v13.62a14.66,14.66,0,0,1-1.45,6.68A10.67,10.67,0,0,1,45.54,461a11.83,11.83,0,0,1-6.25,1.62,12.31,12.31,0,0,1-6.24-1.53,10.43,10.43,0,0,1-4.13-4.43,15.08,15.08,0,0,1-1.46-6.85V436.26a19.45,19.45,0,1,0,23.66-.11Z" transform="translate(22.61 -342.81)" style="fill:#faa950"/><path d="M139.88,406.08a9.45,9.45,0,0,0,6.07-1.83,6.8,6.8,0,0,0,2.28-5.62,7.12,7.12,0,0,0-1.47-4.75,12.16,12.16,0,0,0-3.67-2.89,36.29,36.29,0,0,0-4.75-2,24.61,24.61,0,0,1-4.74-2.25,12.22,12.22,0,0,1-3.67-3.49,10.08,10.08,0,0,1-1.47-5.8,11,11,0,0,1,1.23-5.47,9.93,9.93,0,0,1,3.15-3.43,12.7,12.7,0,0,1,4.27-1.77,21.48,21.48,0,0,1,4.57-.51,26.86,26.86,0,0,1,3.46.24,20.66,20.66,0,0,1,3.39.72,9.24,9.24,0,0,1,2.62,1.23,2.18,2.18,0,0,1,1,1.78,3.74,3.74,0,0,1-.57,1.74,1.77,1.77,0,0,1-1.6,1,2.38,2.38,0,0,1-1.17-.36q-.63-.36-1.56-.78A15,15,0,0,0,145,371a13.27,13.27,0,0,0-3.34-.36,14.52,14.52,0,0,0-3.16.33,7.86,7.86,0,0,0-2.58,1.05,5.28,5.28,0,0,0-1.77,1.92,6.1,6.1,0,0,0-.66,2.95,5.33,5.33,0,0,0,1.47,4,12.56,12.56,0,0,0,3.66,2.43q2.21,1,4.75,1.89a20.22,20.22,0,0,1,4.75,2.41,12.6,12.6,0,0,1,3.67,4,12.75,12.75,0,0,1,1.47,6.56,14.59,14.59,0,0,1-1,5.62,10.77,10.77,0,0,1-2.74,3.93,10.93,10.93,0,0,1-4.14,2.32,17.75,17.75,0,0,1-5.29.75,18.77,18.77,0,0,1-5.26-.69,15.18,15.18,0,0,1-4-1.75,9.83,9.83,0,0,1-2.55-2.22,3.65,3.65,0,0,1-.91-2.13,3.06,3.06,0,0,1,.7-1.84A1.66,1.66,0,0,1,131,402a20.83,20.83,0,0,0,1.8,1.69,11.92,11.92,0,0,0,2.8,1.68A10.68,10.68,0,0,0,139.88,406.08Z" transform="translate(22.61 -342.81)" style="fill:#065497"/><path d="M164.16,408.48a1.58,1.58,0,0,1-.75,1.24,2.89,2.89,0,0,1-1.78.57,2.69,2.69,0,0,1-1.77-.57,1.61,1.61,0,0,1-.69-1.24V366.35a1.47,1.47,0,0,1,.69-1.26,3,3,0,0,1,1.77-.48,3.27,3.27,0,0,1,1.78.48,1.44,1.44,0,0,1,.75,1.26V386a9,9,0,0,1,2.88-3.15,8.3,8.3,0,0,1,4.93-1.41,9.54,9.54,0,0,1,4.09.9,10.51,10.51,0,0,1,3.36,2.49,12.18,12.18,0,0,1,2.29,3.7,11.86,11.86,0,0,1,.84,4.45v15.5a1.48,1.48,0,0,1-.78,1.36,3.43,3.43,0,0,1-1.75.45,3.36,3.36,0,0,1-1.65-.45,1.47,1.47,0,0,1-.81-1.36V393a6.54,6.54,0,0,0-.54-2.59,7.68,7.68,0,0,0-1.47-2.25,7.3,7.3,0,0,0-2.2-1.59,6.08,6.08,0,0,0-2.64-.61,6.21,6.21,0,0,0-2.37.49,6.53,6.53,0,0,0-2.11,1.38,6.79,6.79,0,0,0-1.5,2.22,7.39,7.39,0,0,0-.57,3Z" transform="translate(22.61 -342.81)" style="fill:#065497"/><path d="M198,381.44a12.92,12.92,0,0,1,5.32,1,9.71,9.71,0,0,1,5.56,6.34,15.72,15.72,0,0,1,.6,4.33v15.38a1.55,1.55,0,0,1-.69,1.3,3,3,0,0,1-1.78.51,2.54,2.54,0,0,1-1.65-.51,1.6,1.6,0,0,1-.63-1.3v-2.4a18.1,18.1,0,0,1-3.79,3.25,9.5,9.5,0,0,1-5.29,1.44,10.09,10.09,0,0,1-3.15-.48,7.09,7.09,0,0,1-2.59-1.48,6.81,6.81,0,0,1-1.74-2.49,9.12,9.12,0,0,1-.63-3.55,7.49,7.49,0,0,1,1-4.11,7.3,7.3,0,0,1,2.89-2.56,13.8,13.8,0,0,1,4.44-1.32,41.69,41.69,0,0,1,5.71-.36h2.89v-1.26a10.07,10.07,0,0,0-.36-2.65,7.38,7.38,0,0,0-1.14-2.4,5.9,5.9,0,0,0-2.05-1.74,6.52,6.52,0,0,0-3.06-.67,10.56,10.56,0,0,0-4.45.88q-.72.33-1.2.6a1.88,1.88,0,0,1-.9.27,1.51,1.51,0,0,1-1.39-.84,3.4,3.4,0,0,1-.48-1.69,1.76,1.76,0,0,1,.78-1.35,7.64,7.64,0,0,1,2-1.11,14.64,14.64,0,0,1,2.73-.75A16.93,16.93,0,0,1,198,381.44Zm6.49,16h-2.11c-1.28,0-2.51.06-3.69.16a12.56,12.56,0,0,0-3.13.63,5,5,0,0,0-2.16,1.41,3.75,3.75,0,0,0-.81,2.55,4.17,4.17,0,0,0,1.32,3.43,5,5,0,0,0,3.31,1.08,6.48,6.48,0,0,0,2.58-.57,8.75,8.75,0,0,0,2.34-1.47,8.55,8.55,0,0,0,1.69-2,4,4,0,0,0,.66-2.1Z" transform="translate(22.61 -342.81)" style="fill:#065497"/><path d="M221.38,408.48a1.58,1.58,0,0,1-.75,1.24,2.89,2.89,0,0,1-1.78.57,2.69,2.69,0,0,1-1.77-.57,1.61,1.61,0,0,1-.69-1.24V366.35a1.47,1.47,0,0,1,.69-1.26,3,3,0,0,1,1.77-.48,3.27,3.27,0,0,1,1.78.48,1.44,1.44,0,0,1,.75,1.26V386a9,9,0,0,1,2.88-3.15,8.3,8.3,0,0,1,4.93-1.41,9.57,9.57,0,0,1,4.09.9,10.51,10.51,0,0,1,3.36,2.49,12.38,12.38,0,0,1,2.29,3.7,11.86,11.86,0,0,1,.84,4.45v15.5a1.48,1.48,0,0,1-.78,1.36,3.46,3.46,0,0,1-1.75.45,3.36,3.36,0,0,1-1.65-.45,1.47,1.47,0,0,1-.81-1.36V393a6.54,6.54,0,0,0-.54-2.59,7.68,7.68,0,0,0-1.47-2.25,7.3,7.3,0,0,0-2.2-1.59,6.08,6.08,0,0,0-2.64-.61,6.3,6.3,0,0,0-2.38.49,6.6,6.6,0,0,0-2.1,1.38A6.79,6.79,0,0,0,222,390a7.39,7.39,0,0,0-.57,3Z" transform="translate(22.61 -342.81)" style="fill:#065497"/><path d="M249.15,381.8a3.21,3.21,0,0,1,1.77.48,1.44,1.44,0,0,1,.75,1.26v29.15a20.43,20.43,0,0,1-.48,4.6,11,11,0,0,1-1.47,3.58,7,7,0,0,1-2.56,2.34,7.74,7.74,0,0,1-3.72.84,2.56,2.56,0,0,1-2-.66,2.38,2.38,0,0,1,0-3.13,2,2,0,0,1,1.44-.6,3.53,3.53,0,0,0,2-.51,3.17,3.17,0,0,0,1.14-1.44,7.56,7.56,0,0,0,.51-2.22c.08-.87.12-1.8.12-2.8V383.54a1.47,1.47,0,0,1,.69-1.26A3,3,0,0,1,249.15,381.8Zm0-13.53a3.06,3.06,0,0,1,2.16.85,2.62,2.62,0,0,1,.9,2,2.72,2.72,0,0,1-.9,2,3,3,0,0,1-2.16.87,3.08,3.08,0,0,1-2.23-.87,2.72,2.72,0,0,1-.9-2,2.62,2.62,0,0,1,.9-2A3.15,3.15,0,0,1,249.15,368.27Z" transform="translate(22.61 -342.81)" style="fill:#065497"/><path d="M267.42,381.44a12.84,12.84,0,0,1,5.31,1,9.64,9.64,0,0,1,5.56,6.34,15.73,15.73,0,0,1,.61,4.33v15.38a1.56,1.56,0,0,1-.7,1.3,2.9,2.9,0,0,1-1.77.51,2.54,2.54,0,0,1-1.65-.51,1.6,1.6,0,0,1-.63-1.3v-2.4a18.35,18.35,0,0,1-3.79,3.25,9.5,9.5,0,0,1-5.29,1.44,10.09,10.09,0,0,1-3.15-.48,7,7,0,0,1-2.59-1.48,6.81,6.81,0,0,1-1.74-2.49,9.12,9.12,0,0,1-.63-3.55,7.49,7.49,0,0,1,1-4.11,7.34,7.34,0,0,1,2.88-2.56,13.94,13.94,0,0,1,4.45-1.32,41.58,41.58,0,0,1,5.71-.36h2.89v-1.26a10.07,10.07,0,0,0-.36-2.65,7.2,7.2,0,0,0-1.15-2.4,5.77,5.77,0,0,0-2-1.74,6.52,6.52,0,0,0-3.06-.67,10.56,10.56,0,0,0-4.45.88q-.72.33-1.2.6a1.92,1.92,0,0,1-.91.27,1.51,1.51,0,0,1-1.38-.84,3.4,3.4,0,0,1-.48-1.69,1.76,1.76,0,0,1,.78-1.35,7.48,7.48,0,0,1,2-1.11,14.64,14.64,0,0,1,2.73-.75A16.93,16.93,0,0,1,267.42,381.44Zm6.49,16H271.8c-1.28,0-2.51.06-3.69.16a12.46,12.46,0,0,0-3.13.63,5,5,0,0,0-2.16,1.41,3.75,3.75,0,0,0-.81,2.55,4.17,4.17,0,0,0,1.32,3.43,5,5,0,0,0,3.3,1.08,6.49,6.49,0,0,0,2.59-.57,8.82,8.82,0,0,0,4-3.46,4,4,0,0,0,.66-2.1Z" transform="translate(22.61 -342.81)" style="fill:#065497"/><path d="M288.75,364.61a3.27,3.27,0,0,1,1.78.48,1.44,1.44,0,0,1,.75,1.26v42.13a1.58,1.58,0,0,1-.75,1.24,2.89,2.89,0,0,1-1.78.57,2.69,2.69,0,0,1-1.77-.57,1.61,1.61,0,0,1-.69-1.24V366.35a1.47,1.47,0,0,1,.69-1.26A3,3,0,0,1,288.75,364.61Z" transform="translate(22.61 -342.81)" style="fill:#065497"/><path d="M307.5,381.44a12.86,12.86,0,0,1,5.32,1,9.64,9.64,0,0,1,5.56,6.34,15.72,15.72,0,0,1,.6,4.33v15.38a1.55,1.55,0,0,1-.69,1.3,2.9,2.9,0,0,1-1.77.51,2.54,2.54,0,0,1-1.65-.51,1.6,1.6,0,0,1-.63-1.3v-2.4a18.35,18.35,0,0,1-3.79,3.25,9.5,9.5,0,0,1-5.29,1.44,10.09,10.09,0,0,1-3.15-.48,7,7,0,0,1-2.59-1.48,6.81,6.81,0,0,1-1.74-2.49,9.12,9.12,0,0,1-.63-3.55,7.49,7.49,0,0,1,1-4.11A7.34,7.34,0,0,1,301,396.1a13.94,13.94,0,0,1,4.45-1.32,41.58,41.58,0,0,1,5.71-.36H314v-1.26a9.68,9.68,0,0,0-.37-2.65,7.38,7.38,0,0,0-1.14-2.4,5.77,5.77,0,0,0-2-1.74,6.54,6.54,0,0,0-3.07-.67,10.56,10.56,0,0,0-4.44.88c-.48.22-.89.42-1.21.6a1.85,1.85,0,0,1-.9.27,1.51,1.51,0,0,1-1.38-.84,3.4,3.4,0,0,1-.48-1.69,1.76,1.76,0,0,1,.78-1.35,7.48,7.48,0,0,1,2-1.11,14.64,14.64,0,0,1,2.73-.75A16.9,16.9,0,0,1,307.5,381.44Zm6.5,16h-2.11c-1.28,0-2.51.06-3.69.16a12.46,12.46,0,0,0-3.13.63,5,5,0,0,0-2.16,1.41,3.75,3.75,0,0,0-.81,2.55,4.17,4.17,0,0,0,1.32,3.43,5,5,0,0,0,3.3,1.08,6.53,6.53,0,0,0,2.59-.57,8.75,8.75,0,0,0,2.34-1.47,8.51,8.51,0,0,0,1.68-2,4,4,0,0,0,.67-2.1Z" transform="translate(22.61 -342.81)" style="fill:#065497"/><path d="M328.84,364.61a3.27,3.27,0,0,1,1.78.48,1.44,1.44,0,0,1,.75,1.26v42.13a1.58,1.58,0,0,1-.75,1.24,2.89,2.89,0,0,1-1.78.57,2.69,2.69,0,0,1-1.77-.57,1.61,1.61,0,0,1-.69-1.24V366.35a1.47,1.47,0,0,1,.69-1.26A3,3,0,0,1,328.84,364.61Z" transform="translate(22.61 -342.81)" style="fill:#065497"/><path d="M372.78,368.09a1.41,1.41,0,0,1,.75-1.32,3.56,3.56,0,0,1,1.77-.42,3.66,3.66,0,0,1,1.71.42,1.4,1.4,0,0,1,.82,1.32v29.45a16.19,16.19,0,0,1-1,6.11,10.34,10.34,0,0,1-7,6.31,19.71,19.71,0,0,1-10.34,0,10.31,10.31,0,0,1-4.14-2.26,10.76,10.76,0,0,1-2.77-4.05,16.2,16.2,0,0,1-1-6.11V368.09a1.4,1.4,0,0,1,.78-1.32,3.61,3.61,0,0,1,1.74-.42,3.65,3.65,0,0,1,1.75.42,1.4,1.4,0,0,1,.78,1.32v29.45c0,2.93.71,5.08,2.13,6.47a8.15,8.15,0,0,0,5.92,2.07,8.24,8.24,0,0,0,5.95-2.07c1.45-1.39,2.17-3.54,2.17-6.47Z" transform="translate(22.61 -342.81)" style="fill:#065497"/><path d="M390,408.48a1.58,1.58,0,0,1-.75,1.24,2.87,2.87,0,0,1-1.78.57,2.69,2.69,0,0,1-1.77-.57,1.61,1.61,0,0,1-.69-1.24V383.54a1.47,1.47,0,0,1,.69-1.26,3,3,0,0,1,1.77-.48,2.77,2.77,0,0,1,1.6.48,1.47,1.47,0,0,1,.69,1.26V386a8.84,8.84,0,0,1,8-4.56,9.57,9.57,0,0,1,4.09.9,10.51,10.51,0,0,1,3.36,2.49,12.18,12.18,0,0,1,2.29,3.7,11.86,11.86,0,0,1,.84,4.45v15.5a1.48,1.48,0,0,1-.78,1.36,3.43,3.43,0,0,1-1.75.45,3.31,3.31,0,0,1-1.68-.45,1.48,1.48,0,0,1-.78-1.36V393a6.54,6.54,0,0,0-.54-2.59,7.68,7.68,0,0,0-1.47-2.25,7.42,7.42,0,0,0-2.2-1.59,6.08,6.08,0,0,0-2.64-.61,6.21,6.21,0,0,0-2.37.49,6.53,6.53,0,0,0-2.11,1.38,6.79,6.79,0,0,0-1.5,2.22,7.39,7.39,0,0,0-.57,3Z" transform="translate(22.61 -342.81)" style="fill:#065497"/><path d="M417.73,368.27a3.07,3.07,0,0,1,2.17.85,2.62,2.62,0,0,1,.9,2,2.72,2.72,0,0,1-.9,2,3,3,0,0,1-2.17.87,3.07,3.07,0,0,1-2.22-.87,2.72,2.72,0,0,1-.9-2,2.62,2.62,0,0,1,.9-2A3.14,3.14,0,0,1,417.73,368.27Zm0,13.53a3.22,3.22,0,0,1,1.78.48,1.44,1.44,0,0,1,.75,1.26v24.94a1.58,1.58,0,0,1-.75,1.24,2.85,2.85,0,0,1-1.78.57,2.72,2.72,0,0,1-1.74-.57,1.59,1.59,0,0,1-.72-1.24V383.54a1.46,1.46,0,0,1,.72-1.26A3.06,3.06,0,0,1,417.73,381.8Z" transform="translate(22.61 -342.81)" style="fill:#065497"/><path d="M424.77,384.8a3,3,0,0,1-.15-.42,1.9,1.9,0,0,1-.09-.54,1.37,1.37,0,0,1,.3-.84,2.37,2.37,0,0,1,.78-.69,5.53,5.53,0,0,1,1.05-.45,3.51,3.51,0,0,1,1-.18,2.07,2.07,0,0,1,1,.24,1.31,1.31,0,0,1,.63.72L437,403.07l7.51-20.19a2.58,2.58,0,0,1,.6-.87,1.46,1.46,0,0,1,1-.33,3.48,3.48,0,0,1,1,.18,5.53,5.53,0,0,1,1,.45,3.1,3.1,0,0,1,.84.69,1.3,1.3,0,0,1,.36.84,2.13,2.13,0,0,1-.24,1l-9.86,24.95a1.77,1.77,0,0,1-.9.78,3.3,3.3,0,0,1-1.38.3,3.71,3.71,0,0,1-1.47-.27,1.57,1.57,0,0,1-.88-.81Z" transform="translate(22.61 -342.81)" style="fill:#065497"/><path d="M464.49,381.44a12.08,12.08,0,0,1,4.39.81,11.38,11.38,0,0,1,3.7,2.28,10.9,10.9,0,0,1,2.52,3.52,10.59,10.59,0,0,1,.94,4.45,6.9,6.9,0,0,1-.46,2.79,3.51,3.51,0,0,1-1.2,1.5,3.7,3.7,0,0,1-1.71.61c-.64.06-1.3.08-2,.08H457.52v1.81a6.51,6.51,0,0,0,2.38,5.32,9.37,9.37,0,0,0,6.16,1.95,9.48,9.48,0,0,0,2.82-.36,11,11,0,0,0,2-.81q.81-.45,1.38-.81a2.08,2.08,0,0,1,1.11-.36,1.73,1.73,0,0,1,1.47.81,2.63,2.63,0,0,1,.57,1.47,2.06,2.06,0,0,1-.66,1.32,7.34,7.34,0,0,1-1.89,1.39,13.21,13.21,0,0,1-3,1.11,16,16,0,0,1-3.93.45,16.37,16.37,0,0,1-5.38-.84,12.74,12.74,0,0,1-4.21-2.38,10.8,10.8,0,0,1-2.76-3.66,11.26,11.26,0,0,1-1-4.78V392.8a10.51,10.51,0,0,1,.93-4.36,11.73,11.73,0,0,1,6.38-6.1A12.11,12.11,0,0,1,464.49,381.44Zm4.15,12.68a4.24,4.24,0,0,0,2.11-.36q.54-.36.54-1.56a6.61,6.61,0,0,0-.51-2.56,6.87,6.87,0,0,0-1.42-2.16,7,7,0,0,0-2.16-1.5,6.47,6.47,0,0,0-2.76-.58,6.74,6.74,0,0,0-2.68.52,7.53,7.53,0,0,0-2.19,1.38,6.18,6.18,0,0,0-2.05,4.66v2.16Z" transform="translate(22.61 -342.81)" style="fill:#065497"/><path d="M494.19,385.94a7,7,0,0,0-2.83.61,7.15,7.15,0,0,0-2.43,1.74,8.84,8.84,0,0,0-1.72,2.79,10,10,0,0,0-.66,3.7v13.7a1.58,1.58,0,0,1-.75,1.24,2.84,2.84,0,0,1-1.77.57,2.67,2.67,0,0,1-1.77-.57,1.6,1.6,0,0,1-.7-1.24V383.54a1.46,1.46,0,0,1,.7-1.26,3,3,0,0,1,1.77-.48,2.68,2.68,0,0,1,1.62.48,1.49,1.49,0,0,1,.66,1.26v2.83a10.72,10.72,0,0,1,3-3.4,7.75,7.75,0,0,1,4.84-1.53h2a1.7,1.7,0,0,1,1.35.69,2.42,2.42,0,0,1,.57,1.59,2.31,2.31,0,0,1-.57,1.56,1.7,1.7,0,0,1-1.35.66Z" transform="translate(22.61 -342.81)" style="fill:#065497"/><path d="M510.17,406.74c2.17,0,3.66-.39,4.48-1.17a3.54,3.54,0,0,0,1.23-2.62,3.59,3.59,0,0,0-1.08-2.79,8.51,8.51,0,0,0-2.7-1.62,31.63,31.63,0,0,0-3.55-1.12,15.54,15.54,0,0,1-3.55-1.35,8.3,8.3,0,0,1-2.7-2.28,6.36,6.36,0,0,1-1.08-3.94,9.27,9.27,0,0,1,.51-3,7.16,7.16,0,0,1,1.68-2.71,8.62,8.62,0,0,1,3.07-1.95,12.48,12.48,0,0,1,4.6-.75,17.75,17.75,0,0,1,3.09.27,15.79,15.79,0,0,1,2.74.72,6.62,6.62,0,0,1,1.92,1.05,1.64,1.64,0,0,1,.72,1.2,2.2,2.2,0,0,1-.15.72,5,5,0,0,1-.39.85,2.09,2.09,0,0,1-.63.69,1.4,1.4,0,0,1-.81.27,2.46,2.46,0,0,1-1-.27l-1.32-.6a13.39,13.39,0,0,0-1.77-.61,9.2,9.2,0,0,0-2.35-.27,7.35,7.35,0,0,0-2.55.39,4.75,4.75,0,0,0-1.68,1,4.1,4.1,0,0,0-.93,1.38,3.81,3.81,0,0,0-.3,1.41,2.72,2.72,0,0,0,1.08,2.35,9.92,9.92,0,0,0,2.73,1.32c1.1.36,2.29.71,3.55,1.05a14.53,14.53,0,0,1,3.54,1.47,8.29,8.29,0,0,1,2.74,2.56,7.53,7.53,0,0,1,1.08,4.29,7.27,7.27,0,0,1-2.58,5.89c-1.73,1.45-4.21,2.17-7.46,2.17a17.43,17.43,0,0,1-4-.42,14.3,14.3,0,0,1-3.13-1.08,6.89,6.89,0,0,1-2-1.48,2.43,2.43,0,0,1-.72-1.59,2.94,2.94,0,0,1,.48-1.47,1.43,1.43,0,0,1,1.26-.81,1.69,1.69,0,0,1,1.08.45,10.62,10.62,0,0,0,1.41,1,12.48,12.48,0,0,0,2.17,1A10.07,10.07,0,0,0,510.17,406.74Z" transform="translate(22.61 -342.81)" style="fill:#065497"/><path d="M528.27,368.27a3.06,3.06,0,0,1,2.16.85,2.62,2.62,0,0,1,.9,2,2.72,2.72,0,0,1-.9,2,3,3,0,0,1-2.16.87,3.08,3.08,0,0,1-2.23-.87,2.72,2.72,0,0,1-.9-2,2.62,2.62,0,0,1,.9-2A3.15,3.15,0,0,1,528.27,368.27Zm0,13.53a3.21,3.21,0,0,1,1.77.48,1.44,1.44,0,0,1,.75,1.26v24.94a1.58,1.58,0,0,1-.75,1.24,2.84,2.84,0,0,1-1.77.57,2.73,2.73,0,0,1-1.75-.57,1.59,1.59,0,0,1-.72-1.24V383.54a1.46,1.46,0,0,1,.72-1.26A3.08,3.08,0,0,1,528.27,381.8Z" transform="translate(22.61 -342.81)" style="fill:#065497"/><path d="M542.75,401.21a5,5,0,0,0,1.08,3.64c.72.7,2,1,3.91,1h1.86a2,2,0,0,1,1.59.66,2.24,2.24,0,0,1,.58,1.5,2.38,2.38,0,0,1-.58,1.54,2,2,0,0,1-1.59.69h-1.86c-3.25,0-5.72-.72-7.43-2.17s-2.55-3.74-2.55-6.91V370.26a1.43,1.43,0,0,1,.81-1.26,3.22,3.22,0,0,1,1.65-.49A3.27,3.27,0,0,1,542,369a1.44,1.44,0,0,1,.78,1.26V381.8h7.57a1.27,1.27,0,0,1,1.08.6,2.35,2.35,0,0,1,.42,1.38,2.21,2.21,0,0,1-.42,1.35,1.29,1.29,0,0,1-1.08.57h-7.57Z" transform="translate(22.61 -342.81)" style="fill:#065497"/><path d="M553.93,384.5a1.22,1.22,0,0,1-.24-.66,1.55,1.55,0,0,1,.33-.93,3.34,3.34,0,0,1,.81-.78,3.93,3.93,0,0,1,1-.51,3.51,3.51,0,0,1,1-.18,2.14,2.14,0,0,1,1,.24,1.35,1.35,0,0,1,.63.78l7.93,20.92,7.15-20.92a1.55,1.55,0,0,1,1.57-1,3.47,3.47,0,0,1,1,.18,4.44,4.44,0,0,1,1.08.51,3.15,3.15,0,0,1,.84.78,1.64,1.64,0,0,1,.33,1,1,1,0,0,1-.18.6L569.13,409q-1,2.54-2,5.2a25.25,25.25,0,0,1-2.58,4.87,14,14,0,0,1-3.55,3.61,8.37,8.37,0,0,1-4.87,1.41,3.08,3.08,0,0,1-1.68-.42q-.66-.42-.66-1.8a3.67,3.67,0,0,1,.3-1.51,1.13,1.13,0,0,1,1.14-.66,5.37,5.37,0,0,0,2.68-.78,9.45,9.45,0,0,0,2.52-2.19,15.88,15.88,0,0,0,2.1-3.4,18.88,18.88,0,0,0,1.41-4.45Z" transform="translate(22.61 -342.81)" style="fill:#065497"/><path d="M142.16,482.77a18.13,18.13,0,0,1-5.08-.69,10.1,10.1,0,0,1-6.85-6.31,16.58,16.58,0,0,1-1-6.1V451.58a16.55,16.55,0,0,1,1-6.1,10.1,10.1,0,0,1,6.85-6.31,19,19,0,0,1,10.16,0,10.81,10.81,0,0,1,4.15,2.25,10.45,10.45,0,0,1,2.76,4.06,16.55,16.55,0,0,1,1,6.1v18.09a16.58,16.58,0,0,1-1,6.1,10.45,10.45,0,0,1-2.76,4.06,10.81,10.81,0,0,1-4.15,2.25A18.13,18.13,0,0,1,142.16,482.77Zm7.93-31.19q0-4.4-2.1-6.46a8,8,0,0,0-5.83-2.08,7.86,7.86,0,0,0-5.8,2.08q-2.07,2.07-2.07,6.46v18.09c0,2.92.69,5.08,2.07,6.46a7.85,7.85,0,0,0,5.8,2.07,8,8,0,0,0,5.83-2.07c1.4-1.38,2.1-3.54,2.1-6.46Z" transform="translate(22.61 -342.81)" style="fill:#010101"/><path d="M167.58,453.92h8.24a1.32,1.32,0,0,1,1.14.6,2.38,2.38,0,0,1,.42,1.39,2.21,2.21,0,0,1-.42,1.35,1.34,1.34,0,0,1-1.14.57h-8.24v22.84a1.44,1.44,0,0,1-.78,1.26,3.36,3.36,0,0,1-1.8.48,2.92,2.92,0,0,1-1.71-.48,1.45,1.45,0,0,1-.69-1.26V448a11.39,11.39,0,0,1,3.15-8,11,11,0,0,1,3.4-2.41,9.77,9.77,0,0,1,4.08-.87h2.11a1.78,1.78,0,0,1,1.53.69,2.54,2.54,0,0,1,.51,1.54,2.39,2.39,0,0,1-.51,1.5,1.81,1.81,0,0,1-1.53.66h-1.27a6.53,6.53,0,0,0-2.58.51,6.13,6.13,0,0,0-2,1.38,6.92,6.92,0,0,0-1.36,2.05,6.16,6.16,0,0,0-.51,2.49Z" transform="translate(22.61 -342.81)" style="fill:#010101"/><path d="M194.81,441.12a10,10,0,0,0-3.82.66,7.36,7.36,0,0,0-2.58,1.71,6.59,6.59,0,0,0-1.44,2.38,8.14,8.14,0,0,0-.45,2.64v5.41h7.21a1.32,1.32,0,0,1,1.14.6,2.38,2.38,0,0,1,.42,1.39,2.21,2.21,0,0,1-.42,1.35,1.34,1.34,0,0,1-1.14.57h-7.21v22.84a1.45,1.45,0,0,1-.79,1.26,3.36,3.36,0,0,1-1.8.48,2.92,2.92,0,0,1-1.71-.48,1.47,1.47,0,0,1-.69-1.26v-32a11.78,11.78,0,0,1,.87-4.44,11,11,0,0,1,2.55-3.82,13.17,13.17,0,0,1,4.12-2.68,14.41,14.41,0,0,1,5.62-1,19.61,19.61,0,0,1,3.43.3,14.82,14.82,0,0,1,3,.85,7.79,7.79,0,0,1,2.19,1.26,2,2,0,0,1,.85,1.5,3.37,3.37,0,0,1-.12.78,4.62,4.62,0,0,1-.37.93,2.9,2.9,0,0,1-.6.78,1.13,1.13,0,0,1-.78.33,1.86,1.86,0,0,1-1-.36q-.54-.36-1.38-.81a10.9,10.9,0,0,0-2.07-.81A11.06,11.06,0,0,0,194.81,441.12Zm8.47,12.8a3.34,3.34,0,0,1,1.84.48,1.46,1.46,0,0,1,.75,1.27v24.94a1.58,1.58,0,0,1-.75,1.23,3,3,0,0,1-1.84.57,2.6,2.6,0,0,1-1.71-.57,1.61,1.61,0,0,1-.69-1.23V455.67a1.49,1.49,0,0,1,.69-1.27A2.92,2.92,0,0,1,203.28,453.92Z" transform="translate(22.61 -342.81)" style="fill:#010101"/><path d="M224,482.89a14.5,14.5,0,0,1-5.38-.9,10.38,10.38,0,0,1-3.73-2.46,10,10,0,0,1-2.19-3.7,14.26,14.26,0,0,1-.72-4.6v-6a14.16,14.16,0,0,1,.72-4.54,9.91,9.91,0,0,1,5.92-6.22,14.31,14.31,0,0,1,5.32-.9,15.54,15.54,0,0,1,3.61.39,12.58,12.58,0,0,1,2.79,1,5.89,5.89,0,0,1,1.8,1.36,2.26,2.26,0,0,1,.63,1.41,2.81,2.81,0,0,1-.6,1.62,1.79,1.79,0,0,1-1.5.84,1.55,1.55,0,0,1-.93-.33,11.66,11.66,0,0,0-1.14-.72,9.36,9.36,0,0,0-1.71-.72,8.63,8.63,0,0,0-2.59-.33q-3.73,0-5.53,1.89a7.35,7.35,0,0,0-1.8,5.26v6a7.31,7.31,0,0,0,1.8,5.26c1.2,1.26,3.07,1.89,5.59,1.89a8.75,8.75,0,0,0,2.67-.33,7.84,7.84,0,0,0,1.75-.75q.69-.42,1.17-.75a1.69,1.69,0,0,1,1-.33,1.91,1.91,0,0,1,1.62.81,2.65,2.65,0,0,1,.61,1.59,2.28,2.28,0,0,1-.67,1.48,6.43,6.43,0,0,1-1.86,1.38,12.08,12.08,0,0,1-2.88,1A16.62,16.62,0,0,1,224,482.89Z" transform="translate(22.61 -342.81)" style="fill:#010101"/><path d="M248.6,453.56a12.12,12.12,0,0,1,4.39.81,11.62,11.62,0,0,1,3.7,2.29,10.86,10.86,0,0,1,2.52,3.51,10.65,10.65,0,0,1,.93,4.45,7,7,0,0,1-.45,2.8,3.51,3.51,0,0,1-1.2,1.5,3.58,3.58,0,0,1-1.71.6c-.64.06-1.31.09-2,.09H241.63v1.8a6.52,6.52,0,0,0,2.37,5.32,10.84,10.84,0,0,0,9,1.6,11.33,11.33,0,0,0,1.95-.82c.54-.3,1-.57,1.39-.81a2.08,2.08,0,0,1,1.11-.36,1.73,1.73,0,0,1,1.47.81,2.63,2.63,0,0,1,.57,1.47,2.06,2.06,0,0,1-.66,1.33,7.11,7.11,0,0,1-1.89,1.38,13.58,13.58,0,0,1-3,1.11,16,16,0,0,1-3.94.45,16.45,16.45,0,0,1-5.38-.84,12.68,12.68,0,0,1-4.2-2.37,10.87,10.87,0,0,1-2.77-3.67,11.2,11.2,0,0,1-1-4.78v-6.31a10.58,10.58,0,0,1,.93-4.36,11.61,11.61,0,0,1,2.56-3.63,12,12,0,0,1,3.81-2.47A12.2,12.2,0,0,1,248.6,453.56Zm4.15,12.68a4.17,4.17,0,0,0,2.1-.36q.54-.36.54-1.56a6.6,6.6,0,0,0-.51-2.55,6.89,6.89,0,0,0-1.41-2.17,7,7,0,0,0-2.16-1.5,6.66,6.66,0,0,0-2.77-.57,6.9,6.9,0,0,0-2.67.51,7.58,7.58,0,0,0-2.2,1.38,6.13,6.13,0,0,0-1.5,2.08,6.21,6.21,0,0,0-.54,2.58v2.16Z" transform="translate(22.61 -342.81)" style="fill:#010101"/><path d="M278.29,458.07a7,7,0,0,0-2.82.6,7.19,7.19,0,0,0-2.44,1.74,9.17,9.17,0,0,0-1.71,2.8,9.87,9.87,0,0,0-.66,3.7v13.7a1.58,1.58,0,0,1-.75,1.23,2.84,2.84,0,0,1-1.77.57,2.7,2.7,0,0,1-1.78-.57,1.61,1.61,0,0,1-.69-1.23V455.67a1.49,1.49,0,0,1,.69-1.27,3,3,0,0,1,1.78-.48,2.68,2.68,0,0,1,1.62.48,1.51,1.51,0,0,1,.66,1.27v2.82a10.94,10.94,0,0,1,3-3.4,7.74,7.74,0,0,1,4.83-1.53h2a1.7,1.7,0,0,1,1.35.69,2.45,2.45,0,0,1,.57,1.6,2.31,2.31,0,0,1-.57,1.56,1.73,1.73,0,0,1-1.35.66Z" transform="translate(22.61 -342.81)" style="fill:#010101"/><path d="M294.28,478.87c2.16,0,3.66-.4,4.48-1.18a3.54,3.54,0,0,0,1.23-2.61,3.63,3.63,0,0,0-1.08-2.8,8.45,8.45,0,0,0-2.71-1.62,29.55,29.55,0,0,0-3.54-1.11,15.36,15.36,0,0,1-3.55-1.35,8.21,8.21,0,0,1-2.7-2.29,6.33,6.33,0,0,1-1.08-3.93,9.33,9.33,0,0,1,.51-3,7.12,7.12,0,0,1,1.68-2.7,8.68,8.68,0,0,1,3.06-2,12.56,12.56,0,0,1,4.6-.75,17.86,17.86,0,0,1,3.1.27,15.43,15.43,0,0,1,2.73.72,6.69,6.69,0,0,1,1.93,1.06,1.64,1.64,0,0,1,.72,1.2,2.2,2.2,0,0,1-.15.72,5.26,5.26,0,0,1-.39.84,2,2,0,0,1-.64.69,1.4,1.4,0,0,1-.81.27,2.38,2.38,0,0,1-1-.27l-1.32-.6a12.14,12.14,0,0,0-1.77-.6,9.31,9.31,0,0,0-2.35-.27,7.35,7.35,0,0,0-2.55.39,4.6,4.6,0,0,0-1.68,1,4,4,0,0,0-.94,1.38,3.86,3.86,0,0,0-.3,1.42,2.7,2.7,0,0,0,1.08,2.34,10.13,10.13,0,0,0,2.74,1.32c1.1.36,2.28.71,3.55,1.05a15,15,0,0,1,3.54,1.48,8.35,8.35,0,0,1,2.74,2.55,7.56,7.56,0,0,1,1.08,4.3,7.26,7.26,0,0,1-2.59,5.89q-2.58,2.16-7.45,2.16a17.59,17.59,0,0,1-4-.42,14.2,14.2,0,0,1-3.12-1.08,6.71,6.71,0,0,1-2-1.47,2.45,2.45,0,0,1-.73-1.59,2.87,2.87,0,0,1,.49-1.48,1.43,1.43,0,0,1,1.26-.81,1.69,1.69,0,0,1,1.08.45,10.62,10.62,0,0,0,1.41,1,12.87,12.87,0,0,0,2.17,1A10.07,10.07,0,0,0,294.28,478.87Z" transform="translate(22.61 -342.81)" style="fill:#010101"/><path d="M310.87,437.88A3.19,3.19,0,0,1,314,441a8.29,8.29,0,0,1-.61,2.31q-.6,1.67-2.1,5a1.14,1.14,0,0,1-.54.6,1.49,1.49,0,0,1-.66.18,2.14,2.14,0,0,1-1.23-.39,1.21,1.21,0,0,1-.57-1.05,1.12,1.12,0,0,1,.12-.6l1.26-3.12a3.2,3.2,0,0,1-1.38-1.15,3.23,3.23,0,0,1,.33-4A2.94,2.94,0,0,1,310.87,437.88Z" transform="translate(22.61 -342.81)" style="fill:#010101"/><path d="M331.73,482.41a4.16,4.16,0,0,1-2.05-.57,1.71,1.71,0,0,1-1-1.53,2,2,0,0,1,.12-.48l12.26-40a2.17,2.17,0,0,1,1.2-1.32,4.56,4.56,0,0,1,1.93-.42,4.24,4.24,0,0,1,1.92.45,2.29,2.29,0,0,1,1.2,1.29l12.26,40a.66.66,0,0,0,0,.21.65.65,0,0,1,0,.21,1.82,1.82,0,0,1-1,1.53,4,4,0,0,1-2.1.63,2.29,2.29,0,0,1-1.14-.27,1.41,1.41,0,0,1-.66-.87l-2.65-9H336.23l-2.64,9A1.71,1.71,0,0,1,331.73,482.41Zm19.11-14.24-6.67-22.6-6.79,22.6Z" transform="translate(22.61 -342.81)" style="fill:#010101"/><path d="M372.18,478.87c2.16,0,3.65-.4,4.47-1.18a3.54,3.54,0,0,0,1.23-2.61,3.6,3.6,0,0,0-1.08-2.8,8.51,8.51,0,0,0-2.7-1.62,29.72,29.72,0,0,0-3.55-1.11A15.28,15.28,0,0,1,367,468.2a8.24,8.24,0,0,1-2.71-2.29,6.33,6.33,0,0,1-1.08-3.93,9.33,9.33,0,0,1,.51-3,7.12,7.12,0,0,1,1.68-2.7,8.82,8.82,0,0,1,3.07-2,12.48,12.48,0,0,1,4.6-.75,17.75,17.75,0,0,1,3.09.27,15.32,15.32,0,0,1,2.74.72,6.62,6.62,0,0,1,1.92,1.06,1.64,1.64,0,0,1,.72,1.2,2.2,2.2,0,0,1-.15.72,5.26,5.26,0,0,1-.39.84,2.09,2.09,0,0,1-.63.69,1.4,1.4,0,0,1-.81.27,2.38,2.38,0,0,1-1-.27c-.38-.18-.82-.38-1.33-.6a12.14,12.14,0,0,0-1.77-.6,9.18,9.18,0,0,0-2.34-.27,7.37,7.37,0,0,0-2.56.39,4.6,4.6,0,0,0-1.68,1,4.1,4.1,0,0,0-.93,1.38,3.86,3.86,0,0,0-.3,1.42,2.7,2.7,0,0,0,1.08,2.34,9.92,9.92,0,0,0,2.73,1.32c1.11.36,2.29.71,3.55,1.05a15.21,15.21,0,0,1,3.55,1.48,8.32,8.32,0,0,1,2.73,2.55,7.56,7.56,0,0,1,1.08,4.3,7.28,7.28,0,0,1-2.58,5.89c-1.72,1.44-4.21,2.16-7.45,2.16a17.46,17.46,0,0,1-4-.42,14.3,14.3,0,0,1-3.13-1.08,6.71,6.71,0,0,1-2-1.47,2.43,2.43,0,0,1-.72-1.59,3,3,0,0,1,.48-1.48,1.43,1.43,0,0,1,1.26-.81,1.69,1.69,0,0,1,1.08.45,10.16,10.16,0,0,0,1.42,1,13.1,13.1,0,0,0,2.16,1A10.09,10.09,0,0,0,372.18,478.87Z" transform="translate(22.61 -342.81)" style="fill:#010101"/><path d="M395.74,478.87c2.16,0,3.65-.4,4.47-1.18a3.51,3.51,0,0,0,1.24-2.61,3.6,3.6,0,0,0-1.09-2.8,8.51,8.51,0,0,0-2.7-1.62,29.72,29.72,0,0,0-3.55-1.11,15.28,15.28,0,0,1-3.54-1.35,8.24,8.24,0,0,1-2.71-2.29,6.33,6.33,0,0,1-1.08-3.93,9.33,9.33,0,0,1,.51-3,7.12,7.12,0,0,1,1.68-2.7,8.82,8.82,0,0,1,3.07-2,12.48,12.48,0,0,1,4.6-.75,17.75,17.75,0,0,1,3.09.27,15.32,15.32,0,0,1,2.74.72,6.62,6.62,0,0,1,1.92,1.06,1.64,1.64,0,0,1,.72,1.2,2.2,2.2,0,0,1-.15.72,5.26,5.26,0,0,1-.39.84,2.09,2.09,0,0,1-.63.69,1.4,1.4,0,0,1-.81.27,2.38,2.38,0,0,1-1-.27c-.38-.18-.82-.38-1.33-.6a12.14,12.14,0,0,0-1.77-.6,9.18,9.18,0,0,0-2.34-.27,7.41,7.41,0,0,0-2.56.39,4.6,4.6,0,0,0-1.68,1,4.1,4.1,0,0,0-.93,1.38,3.86,3.86,0,0,0-.3,1.42,2.7,2.7,0,0,0,1.08,2.34,9.92,9.92,0,0,0,2.73,1.32c1.11.36,2.29.71,3.55,1.05a15,15,0,0,1,3.55,1.48,8.32,8.32,0,0,1,2.73,2.55,7.56,7.56,0,0,1,1.08,4.3,7.28,7.28,0,0,1-2.58,5.89c-1.72,1.44-4.21,2.16-7.45,2.16a17.46,17.46,0,0,1-4-.42,14.49,14.49,0,0,1-3.13-1.08,6.71,6.71,0,0,1-2-1.47,2.43,2.43,0,0,1-.72-1.59,3,3,0,0,1,.48-1.48,1.43,1.43,0,0,1,1.26-.81,1.69,1.69,0,0,1,1.08.45,10.16,10.16,0,0,0,1.42,1,13.1,13.1,0,0,0,2.16,1A10.09,10.09,0,0,0,395.74,478.87Z" transform="translate(22.61 -342.81)" style="fill:#010101"/><path d="M422.12,453.56a11.79,11.79,0,0,1,4.57.9,12,12,0,0,1,3.79,2.5,12.27,12.27,0,0,1,2.58,3.69,10.63,10.63,0,0,1,1,4.45v6.13a10.43,10.43,0,0,1-1,4.39,12.84,12.84,0,0,1-2.58,3.73,12.6,12.6,0,0,1-3.79,2.58,11.15,11.15,0,0,1-4.57,1,11,11,0,0,1-4.54-1,12.54,12.54,0,0,1-3.75-2.58,12.87,12.87,0,0,1-2.59-3.73,10.43,10.43,0,0,1-1-4.39V465.1a10.78,10.78,0,0,1,.93-4.39,11.87,11.87,0,0,1,2.56-3.69,12.58,12.58,0,0,1,3.75-2.53A11.43,11.43,0,0,1,422.12,453.56ZM429,465.1a6.49,6.49,0,0,0-.54-2.58,7.72,7.72,0,0,0-1.47-2.26,7.25,7.25,0,0,0-2.19-1.59,6.28,6.28,0,0,0-2.71-.6,6.2,6.2,0,0,0-2.7.6,6.93,6.93,0,0,0-2.17,1.59,8.06,8.06,0,0,0-1.44,2.26,6.49,6.49,0,0,0-.54,2.58v6.13a6.9,6.9,0,0,0,.54,2.68,7.57,7.57,0,0,0,1.47,2.28,7.29,7.29,0,0,0,2.17,1.59,6,6,0,0,0,2.67.6,6.08,6.08,0,0,0,2.68-.6,7.78,7.78,0,0,0,2.19-1.59,7.29,7.29,0,0,0,1.5-2.28,6.9,6.9,0,0,0,.54-2.68Z" transform="translate(22.61 -342.81)" style="fill:#010101"/><path d="M451,482.89a14.5,14.5,0,0,1-5.38-.9,10.25,10.25,0,0,1-3.72-2.46,9.88,9.88,0,0,1-2.2-3.7,14.26,14.26,0,0,1-.72-4.6v-6a14.16,14.16,0,0,1,.72-4.54,10,10,0,0,1,5.92-6.22,14.31,14.31,0,0,1,5.32-.9,15.48,15.48,0,0,1,3.61.39,12.58,12.58,0,0,1,2.79,1,6.07,6.07,0,0,1,1.81,1.36,2.26,2.26,0,0,1,.63,1.41,2.81,2.81,0,0,1-.6,1.62,1.82,1.82,0,0,1-1.51.84,1.55,1.55,0,0,1-.93-.33,11.66,11.66,0,0,0-1.14-.72,9.36,9.36,0,0,0-1.71-.72,8.63,8.63,0,0,0-2.59-.33c-2.48,0-4.33.63-5.53,1.89a7.35,7.35,0,0,0-1.8,5.26v6a7.31,7.31,0,0,0,1.8,5.26c1.2,1.26,3.07,1.89,5.59,1.89a8.82,8.82,0,0,0,2.68-.33,8,8,0,0,0,1.74-.75q.69-.42,1.17-.75a1.69,1.69,0,0,1,1-.33,1.94,1.94,0,0,1,1.63.81,2.7,2.7,0,0,1,.6,1.59,2.26,2.26,0,0,1-.66,1.48,6.63,6.63,0,0,1-1.87,1.38,12.08,12.08,0,0,1-2.88,1A16.62,16.62,0,0,1,451,482.89Z" transform="translate(22.61 -342.81)" style="fill:#010101"/><path d="M467.56,440.4a3.05,3.05,0,0,1,2.16.84,2.62,2.62,0,0,1,.9,2,2.72,2.72,0,0,1-.9,2,3,3,0,0,1-2.16.87,3.11,3.11,0,0,1-2.23-.87,2.72,2.72,0,0,1-.9-2,2.62,2.62,0,0,1,.9-2A3.17,3.17,0,0,1,467.56,440.4Zm0,13.52a3.21,3.21,0,0,1,1.77.48,1.46,1.46,0,0,1,.75,1.27v24.94a1.58,1.58,0,0,1-.75,1.23,2.84,2.84,0,0,1-1.77.57,2.72,2.72,0,0,1-1.74-.57,1.58,1.58,0,0,1-.73-1.23V455.67a1.46,1.46,0,0,1,.73-1.27A3.06,3.06,0,0,1,467.56,453.92Z" transform="translate(22.61 -342.81)" style="fill:#010101"/><path d="M485.77,453.56a12.89,12.89,0,0,1,5.32,1,10.18,10.18,0,0,1,3.58,2.62,9.83,9.83,0,0,1,2,3.72,15.77,15.77,0,0,1,.6,4.33v15.39a1.55,1.55,0,0,1-.69,1.29,2.9,2.9,0,0,1-1.77.51,2.55,2.55,0,0,1-1.66-.51,1.59,1.59,0,0,1-.63-1.29V478.2a17.29,17.29,0,0,1-3.79,3.25,9.49,9.49,0,0,1-5.28,1.44,10.11,10.11,0,0,1-3.16-.48,7.17,7.17,0,0,1-2.58-1.47,6.83,6.83,0,0,1-1.75-2.49,9.19,9.19,0,0,1-.63-3.55,7.53,7.53,0,0,1,1-4.12,7.42,7.42,0,0,1,2.89-2.55,13.79,13.79,0,0,1,4.45-1.32,41.39,41.39,0,0,1,5.71-.37h2.88v-1.26a10,10,0,0,0-.36-2.64,7.53,7.53,0,0,0-1.14-2.41,5.72,5.72,0,0,0-2.05-1.74,6.5,6.5,0,0,0-3.06-.66,11.05,11.05,0,0,0-2.64.27,10.63,10.63,0,0,0-1.81.6q-.72.33-1.2.6a1.85,1.85,0,0,1-.9.27,1.51,1.51,0,0,1-1.38-.84,3.26,3.26,0,0,1-.48-1.68,1.76,1.76,0,0,1,.78-1.35,7.57,7.57,0,0,1,2-1.12,14.54,14.54,0,0,1,2.74-.75A16.9,16.9,0,0,1,485.77,453.56Zm6.49,16.05h-2.1c-1.28,0-2.52.05-3.7.15a12.47,12.47,0,0,0-3.12.63,5.06,5.06,0,0,0-2.17,1.41,3.78,3.78,0,0,0-.81,2.56,4.17,4.17,0,0,0,1.32,3.42,5.07,5.07,0,0,0,3.31,1.09,6.33,6.33,0,0,0,2.58-.58,8.74,8.74,0,0,0,4-3.45,4,4,0,0,0,.66-2.1Z" transform="translate(22.61 -342.81)" style="fill:#010101"/><path d="M509,473.34a5,5,0,0,0,1.08,3.63c.72.7,2,1,3.91,1h1.86a2,2,0,0,1,1.59.67,2.24,2.24,0,0,1,.58,1.5,2.36,2.36,0,0,1-.58,1.53,2,2,0,0,1-1.59.69H514q-4.88,0-7.42-2.16c-1.71-1.44-2.56-3.75-2.56-6.91v-31a1.43,1.43,0,0,1,.81-1.26,3.21,3.21,0,0,1,1.66-.48,3.25,3.25,0,0,1,1.74.48,1.44,1.44,0,0,1,.78,1.26v11.54h7.57a1.27,1.27,0,0,1,1.08.6,2.38,2.38,0,0,1,.42,1.39,2.21,2.21,0,0,1-.42,1.35,1.29,1.29,0,0,1-1.08.57H509Z" transform="translate(22.61 -342.81)" style="fill:#010101"/><path d="M525.2,440.4a3.05,3.05,0,0,1,2.16.84,2.62,2.62,0,0,1,.9,2,2.72,2.72,0,0,1-.9,2,3,3,0,0,1-2.16.87,3.11,3.11,0,0,1-2.23-.87,2.72,2.72,0,0,1-.9-2,2.62,2.62,0,0,1,.9-2A3.17,3.17,0,0,1,525.2,440.4Zm0,13.52a3.21,3.21,0,0,1,1.77.48,1.46,1.46,0,0,1,.75,1.27v24.94a1.58,1.58,0,0,1-.75,1.23,2.84,2.84,0,0,1-1.77.57,2.72,2.72,0,0,1-1.74-.57,1.58,1.58,0,0,1-.73-1.23V455.67a1.46,1.46,0,0,1,.73-1.27A3.06,3.06,0,0,1,525.2,453.92Z" transform="translate(22.61 -342.81)" style="fill:#010101"/><path d="M545.57,453.56a11.75,11.75,0,0,1,4.57.9,11.91,11.91,0,0,1,3.79,2.5,12.27,12.27,0,0,1,2.58,3.69,10.63,10.63,0,0,1,1,4.45v6.13a10.43,10.43,0,0,1-1,4.39,12.84,12.84,0,0,1-2.58,3.73,12.48,12.48,0,0,1-3.79,2.58,11.12,11.12,0,0,1-4.57,1,10.9,10.9,0,0,1-4.53-1,12.46,12.46,0,0,1-3.76-2.58,12.87,12.87,0,0,1-2.59-3.73,10.43,10.43,0,0,1-1-4.39V465.1a10.78,10.78,0,0,1,.93-4.39,12,12,0,0,1,2.56-3.69,12.58,12.58,0,0,1,3.75-2.53A11.43,11.43,0,0,1,545.57,453.56Zm6.91,11.54a6.49,6.49,0,0,0-.54-2.58,7.72,7.72,0,0,0-1.47-2.26,7.25,7.25,0,0,0-2.19-1.59,6.4,6.4,0,0,0-5.41,0,6.77,6.77,0,0,0-2.16,1.59,7.87,7.87,0,0,0-1.45,2.26,6.49,6.49,0,0,0-.54,2.58v6.13a6.9,6.9,0,0,0,.54,2.68,7.43,7.43,0,0,0,3.64,3.87,6.26,6.26,0,0,0,5.35,0,7.78,7.78,0,0,0,2.19-1.59,7.29,7.29,0,0,0,1.5-2.28,6.9,6.9,0,0,0,.54-2.68Z" transform="translate(22.61 -342.81)" style="fill:#010101"/><path d="M568.47,480.61a1.58,1.58,0,0,1-.75,1.23,2.84,2.84,0,0,1-1.77.57,2.72,2.72,0,0,1-1.78-.57,1.61,1.61,0,0,1-.69-1.23V455.67a1.49,1.49,0,0,1,.69-1.27,3.07,3.07,0,0,1,1.78-.48,2.72,2.72,0,0,1,1.59.48,1.49,1.49,0,0,1,.69,1.27v2.46a8.92,8.92,0,0,1,2.95-3.16,8.77,8.77,0,0,1,5.11-1.41,9.5,9.5,0,0,1,4.08.9,10.58,10.58,0,0,1,3.37,2.5,12.18,12.18,0,0,1,2.28,3.69,11.93,11.93,0,0,1,.84,4.45v15.51a1.46,1.46,0,0,1-.78,1.35,3.42,3.42,0,0,1-1.74.45,3.31,3.31,0,0,1-1.68-.45,1.44,1.44,0,0,1-.78-1.35V465.1a6.33,6.33,0,0,0-.55-2.58,7.72,7.72,0,0,0-1.47-2.26,7.25,7.25,0,0,0-2.19-1.59,6.08,6.08,0,0,0-2.65-.6,6.2,6.2,0,0,0-2.37.48,6.75,6.75,0,0,0-2.11,1.38,6.84,6.84,0,0,0-1.5,2.23,7.34,7.34,0,0,0-.57,2.94Z" transform="translate(22.61 -342.81)" style="fill:#010101"/></svg>