<svg id="Layer_1" data-name="Layer 1" xmlns="http://www.w3.org/2000/svg" viewBox="0 0 459.49 635.29"><path d="M161.16,432.64a144.69,144.69,0,0,1,6.21-41.18c1.06-3.51,2.36-4.46,6.15-3,11.14,4.29,22.45,8.16,33.76,12,3.32,1.11,4.45,2.29,3.35,6.07-14.69,50.4,15.25,100,66.73,110.82,48.8,10.24,98.39-26.58,102.79-76.32,4.65-52.72-33.87-95.41-86.94-96.34-45.76-.8-80.32-38.59-76.95-84.15,2.56-34.71,29.81-64.3,64.48-70,35.67-5.88,70.94,13.52,84.61,46.31,1.69,4,.8,5.51-3.19,6.82-11,3.61-22,7.43-32.81,11.6-3.92,1.52-5.43.68-7.28-3-6.56-12.92-21.24-19.77-34.8-16.73a32.13,32.13,0,0,0-2.78,62.24,44.41,44.41,0,0,0,12.15,1.54c64.32,1.76,117.13,47.6,128,111.08,12.32,72.09-39,142.46-111.24,152.41-68.44,9.44-130.2-31.47-148-98A138.92,138.92,0,0,1,161.16,432.64Z" transform="translate(-63.98 -101.49)" style="fill:#4f89c8"/><path d="M438.93,445.11c2,5.53,4,11,6,16.58Q462.5,511.34,480.05,561c2.26,6.39,2.25,6.39-4.51,6.4-12.46,0-24.92-.09-37.38.06-3,0-4.56-.94-5.57-3.88-5.63-16.27-11.44-32.47-17.22-48.69-.66-1.84-1-3.54.15-5.35a143.63,143.63,0,0,0,22.14-64.2Z" transform="translate(-63.98 -101.49)" style="fill:#242d67"/><path d="M149.62,445.17a217,217,0,0,0,4,22.42,137,137,0,0,0,17,39.79,9.19,9.19,0,0,1,.93,9q-8.37,23.05-16.35,46.25c-1.25,3.64-3.09,5-7,4.87-12.79-.26-25.59-.17-38.38,0-3.43,0-4.6-.64-3.28-4.34q20.52-57.51,40.86-115.1C147.81,447,147.66,445.54,149.62,445.17Z" transform="translate(-63.98 -101.49)" style="fill:#242d67"/><path d="M236.33,196.43,247,166.19c7-19.92,14.14-39.81,21-59.78,1.25-3.61,3-5,6.94-4.91,12.62.26,25.25.2,37.87,0,3.82,0,5.22.5,3.68,4.77-8.1,22.44-16,45-23.88,67.46-.73,2.08-1.59,3.58-4.14,3.74a90.11,90.11,0,0,0-51.18,19.8Z" transform="translate(-63.98 -101.49)" style="fill:#242d67"/><path d="M275,426.51q0,9.54,4.83,15.41t13.73,5.86q8.9,0,13.73-5.86t4.84-15.41V375.15a59,59,0,0,0-37.13.14Z" transform="translate(-63.98 -101.49)" style="fill:#faa950"/><path d="M329.39,384.22v41.26A44.73,44.73,0,0,1,325,445.72a32.63,32.63,0,0,1-12.51,13.66,35.92,35.92,0,0,1-18.95,4.9,37.19,37.19,0,0,1-18.88-4.64,31.49,31.49,0,0,1-12.51-13.41q-4.44-8.76-4.44-20.75V384.55a58.93,58.93,0,1,0,71.67-.33Z" transform="translate(-63.98 -101.49)" style="fill:#faa950"/><path d="M76.48,660a9.41,9.41,0,0,0,6.07-1.83q2.3-1.85,2.29-5.62a7.12,7.12,0,0,0-1.47-4.75,12.13,12.13,0,0,0-3.67-2.89,36.88,36.88,0,0,0-4.75-2,25,25,0,0,1-4.75-2.25,12.3,12.3,0,0,1-3.66-3.49,10,10,0,0,1-1.48-5.8,10.85,10.85,0,0,1,1.24-5.47,9.93,9.93,0,0,1,3.15-3.43,12.62,12.62,0,0,1,4.27-1.77,21.41,21.41,0,0,1,4.57-.51,26.6,26.6,0,0,1,3.45.24,20.57,20.57,0,0,1,3.4.72,9,9,0,0,1,2.61,1.23,2.2,2.2,0,0,1,1.06,1.78,3.66,3.66,0,0,1-.58,1.74,1.75,1.75,0,0,1-1.59,1,2.38,2.38,0,0,1-1.17-.36q-.63-.36-1.56-.78a15.16,15.16,0,0,0-2.29-.78,13.13,13.13,0,0,0-3.33-.36,14.45,14.45,0,0,0-3.16.33A7.86,7.86,0,0,0,72.55,626a5.39,5.39,0,0,0-1.78,1.92,6.1,6.1,0,0,0-.66,3,5.3,5.3,0,0,0,1.48,4,12.56,12.56,0,0,0,3.66,2.43c1.46.66,3,1.29,4.75,1.89a20.41,20.41,0,0,1,4.75,2.41,12.6,12.6,0,0,1,3.67,4A12.75,12.75,0,0,1,89.89,652a14.5,14.5,0,0,1-1,5.61,10.84,10.84,0,0,1-2.74,3.94A11,11,0,0,1,82,663.91a17.66,17.66,0,0,1-5.29.75,18.74,18.74,0,0,1-5.25-.69,15.51,15.51,0,0,1-4-1.75A10.06,10.06,0,0,1,64.88,660a3.62,3.62,0,0,1-.9-2.13,3.08,3.08,0,0,1,.69-1.84,1.67,1.67,0,0,1,2.89-.18,19.43,19.43,0,0,0,1.8,1.68,11.41,11.41,0,0,0,2.8,1.69A10.67,10.67,0,0,0,76.48,660Z" transform="translate(-63.98 -101.49)" style="fill:#065497"/><path d="M100.77,662.37a1.61,1.61,0,0,1-.76,1.24,2.84,2.84,0,0,1-1.77.57,2.69,2.69,0,0,1-1.77-.57,1.63,1.63,0,0,1-.69-1.24V620.24a1.47,1.47,0,0,1,.69-1.26,3,3,0,0,1,1.77-.48A3.21,3.21,0,0,1,100,619a1.46,1.46,0,0,1,.76,1.26v19.65a9,9,0,0,1,2.88-3.15,8.3,8.3,0,0,1,4.93-1.41,9.57,9.57,0,0,1,4.09.9,10.51,10.51,0,0,1,3.36,2.49,12.25,12.25,0,0,1,2.29,3.7,11.86,11.86,0,0,1,.84,4.45v15.5a1.49,1.49,0,0,1-.78,1.36,3.46,3.46,0,0,1-1.75.45,3.36,3.36,0,0,1-1.65-.45,1.48,1.48,0,0,1-.81-1.36v-15.5a6.54,6.54,0,0,0-.54-2.59,7.68,7.68,0,0,0-1.47-2.25,7.42,7.42,0,0,0-2.2-1.59,6.08,6.08,0,0,0-2.64-.61,6.21,6.21,0,0,0-2.38.48,6.67,6.67,0,0,0-3.6,3.61,7.36,7.36,0,0,0-.57,3Z" transform="translate(-63.98 -101.49)" style="fill:#065497"/><path d="M134.6,635.33a12.86,12.86,0,0,1,5.32,1,10,10,0,0,1,3.58,2.61,9.87,9.87,0,0,1,2,3.73,15.67,15.67,0,0,1,.61,4.33v15.38a1.57,1.57,0,0,1-.7,1.3,2.9,2.9,0,0,1-1.77.51,2.54,2.54,0,0,1-1.65-.51,1.61,1.61,0,0,1-.63-1.3V660a18,18,0,0,1-3.79,3.24,9.45,9.45,0,0,1-5.29,1.45,10.09,10.09,0,0,1-3.15-.48,7.15,7.15,0,0,1-2.59-1.48,6.81,6.81,0,0,1-1.74-2.49,9.12,9.12,0,0,1-.63-3.55,7.49,7.49,0,0,1,1-4.11,7.26,7.26,0,0,1,2.88-2.56,13.94,13.94,0,0,1,4.45-1.32,41.58,41.58,0,0,1,5.71-.36h2.89v-1.26a10.07,10.07,0,0,0-.36-2.65,7.4,7.4,0,0,0-1.15-2.4,5.9,5.9,0,0,0-2-1.75,6.54,6.54,0,0,0-3.07-.66,11.05,11.05,0,0,0-2.64.27,10.42,10.42,0,0,0-1.8.61q-.72.33-1.2.6a1.92,1.92,0,0,1-.91.27,1.51,1.51,0,0,1-1.38-.84,3.42,3.42,0,0,1-.48-1.69,1.76,1.76,0,0,1,.78-1.35,7.48,7.48,0,0,1,2-1.11,14.64,14.64,0,0,1,2.73-.75A16.9,16.9,0,0,1,134.6,635.33Zm6.5,16H139q-1.92,0-3.69.15a12.45,12.45,0,0,0-3.13.64,5,5,0,0,0-2.16,1.41,3.75,3.75,0,0,0-.81,2.55,4.17,4.17,0,0,0,1.32,3.43,5,5,0,0,0,3.3,1.08,6.49,6.49,0,0,0,2.59-.57,8.73,8.73,0,0,0,4-3.46,4,4,0,0,0,.67-2.1Z" transform="translate(-63.98 -101.49)" style="fill:#065497"/><path d="M158,662.37a1.6,1.6,0,0,1-.75,1.24,2.84,2.84,0,0,1-1.77.57,2.69,2.69,0,0,1-1.77-.57,1.63,1.63,0,0,1-.69-1.24V620.24a1.47,1.47,0,0,1,.69-1.26,3,3,0,0,1,1.77-.48,3.21,3.21,0,0,1,1.77.48,1.44,1.44,0,0,1,.75,1.26v19.65a9.16,9.16,0,0,1,2.89-3.15,8.28,8.28,0,0,1,4.93-1.41,9.57,9.57,0,0,1,4.09.9,10.51,10.51,0,0,1,3.36,2.49,12.45,12.45,0,0,1,2.29,3.7,11.86,11.86,0,0,1,.84,4.45v15.5a1.48,1.48,0,0,1-.79,1.36,3.42,3.42,0,0,1-1.74.45,3.36,3.36,0,0,1-1.65-.45,1.48,1.48,0,0,1-.81-1.36v-15.5a6.54,6.54,0,0,0-.54-2.59,7.51,7.51,0,0,0-1.48-2.25,7.25,7.25,0,0,0-2.19-1.59,6.08,6.08,0,0,0-2.64-.61,6.21,6.21,0,0,0-2.38.48,6.67,6.67,0,0,0-3.6,3.61,7.19,7.19,0,0,0-.58,3Z" transform="translate(-63.98 -101.49)" style="fill:#065497"/><path d="M185.75,635.69a3.27,3.27,0,0,1,1.78.48,1.44,1.44,0,0,1,.75,1.26v29.15a20.43,20.43,0,0,1-.48,4.6,10.69,10.69,0,0,1-1.48,3.57,6.92,6.92,0,0,1-2.55,2.35,7.75,7.75,0,0,1-3.73.84,2.55,2.55,0,0,1-2-.66,2.23,2.23,0,0,1-.57-1.5,2.2,2.2,0,0,1,.6-1.63,2,2,0,0,1,1.44-.6,3.58,3.58,0,0,0,2-.51,3.17,3.17,0,0,0,1.14-1.44,7.56,7.56,0,0,0,.51-2.22c.08-.87.12-1.8.12-2.8V637.43a1.47,1.47,0,0,1,.69-1.26A3,3,0,0,1,185.75,635.69Zm0-13.53a3.08,3.08,0,0,1,2.17.84,2.66,2.66,0,0,1,.9,2,2.72,2.72,0,0,1-.9,2,3,3,0,0,1-2.17.87,3.07,3.07,0,0,1-2.22-.87,2.72,2.72,0,0,1-.9-2,2.66,2.66,0,0,1,.9-2A3.13,3.13,0,0,1,185.75,622.16Z" transform="translate(-63.98 -101.49)" style="fill:#065497"/><path d="M204,635.33a12.86,12.86,0,0,1,5.32,1,10,10,0,0,1,3.58,2.61,9.87,9.87,0,0,1,2,3.73,15.67,15.67,0,0,1,.6,4.33v15.38a1.56,1.56,0,0,1-.69,1.3,2.9,2.9,0,0,1-1.77.51,2.54,2.54,0,0,1-1.65-.51,1.61,1.61,0,0,1-.63-1.3V660a18,18,0,0,1-3.79,3.24,9.45,9.45,0,0,1-5.29,1.45,10.2,10.2,0,0,1-3.16-.48,7.19,7.19,0,0,1-2.58-1.48,6.81,6.81,0,0,1-1.74-2.49,9.12,9.12,0,0,1-.63-3.55,7.49,7.49,0,0,1,1-4.11,7.26,7.26,0,0,1,2.88-2.56,13.87,13.87,0,0,1,4.45-1.32,41.58,41.58,0,0,1,5.71-.36h2.88v-1.26a10.07,10.07,0,0,0-.36-2.65A7.38,7.38,0,0,0,209,642a5.9,5.9,0,0,0-2-1.75,6.54,6.54,0,0,0-3.07-.66,11.05,11.05,0,0,0-2.64.27,10.42,10.42,0,0,0-1.8.61c-.49.22-.89.42-1.21.6a1.85,1.85,0,0,1-.9.27,1.51,1.51,0,0,1-1.38-.84,3.42,3.42,0,0,1-.48-1.69,1.76,1.76,0,0,1,.78-1.35,7.56,7.56,0,0,1,2-1.11,14.75,14.75,0,0,1,2.74-.75A16.9,16.9,0,0,1,204,635.33Zm6.49,16h-2.1q-1.92,0-3.69.15a12.45,12.45,0,0,0-3.13.64,5,5,0,0,0-2.16,1.41,3.75,3.75,0,0,0-.82,2.55,4.15,4.15,0,0,0,1.33,3.43,5,5,0,0,0,3.3,1.08,6.53,6.53,0,0,0,2.59-.57,8.73,8.73,0,0,0,4-3.46,4,4,0,0,0,.66-2.1Z" transform="translate(-63.98 -101.49)" style="fill:#065497"/><path d="M225.36,618.5a3.21,3.21,0,0,1,1.77.48,1.44,1.44,0,0,1,.76,1.26v42.13a1.58,1.58,0,0,1-.76,1.24,2.84,2.84,0,0,1-1.77.57,2.69,2.69,0,0,1-1.77-.57,1.63,1.63,0,0,1-.69-1.24V620.24a1.47,1.47,0,0,1,.69-1.26A3,3,0,0,1,225.36,618.5Z" transform="translate(-63.98 -101.49)" style="fill:#065497"/><path d="M244.11,635.33a12.86,12.86,0,0,1,5.32,1,10,10,0,0,1,3.58,2.61,9.87,9.87,0,0,1,2,3.73,15.67,15.67,0,0,1,.6,4.33v15.38a1.56,1.56,0,0,1-.69,1.3,2.9,2.9,0,0,1-1.77.51,2.54,2.54,0,0,1-1.65-.51,1.62,1.62,0,0,1-.64-1.3V660a17.71,17.71,0,0,1-3.78,3.24,9.47,9.47,0,0,1-5.29,1.45,10.15,10.15,0,0,1-3.16-.48A7.19,7.19,0,0,1,236,662.7a6.81,6.81,0,0,1-1.74-2.49,9.11,9.11,0,0,1-.64-3.55,7.41,7.41,0,0,1,1-4.11,7.26,7.26,0,0,1,2.88-2.56,13.87,13.87,0,0,1,4.45-1.32,41.58,41.58,0,0,1,5.71-.36h2.88v-1.26a10.07,10.07,0,0,0-.36-2.65,7.38,7.38,0,0,0-1.14-2.4,5.9,5.9,0,0,0-2-1.75,6.57,6.57,0,0,0-3.07-.66,11.05,11.05,0,0,0-2.64.27,10.42,10.42,0,0,0-1.8.61c-.49.22-.89.42-1.21.6a1.85,1.85,0,0,1-.9.27,1.51,1.51,0,0,1-1.38-.84,3.42,3.42,0,0,1-.48-1.69,1.76,1.76,0,0,1,.78-1.35,7.56,7.56,0,0,1,2-1.11,14.75,14.75,0,0,1,2.74-.75A16.9,16.9,0,0,1,244.11,635.33Zm6.49,16h-2.1c-1.28,0-2.51,0-3.7.15a12.46,12.46,0,0,0-3.12.64,5.12,5.12,0,0,0-2.17,1.41,3.75,3.75,0,0,0-.81,2.55,4.15,4.15,0,0,0,1.33,3.43,5,5,0,0,0,3.3,1.08,6.56,6.56,0,0,0,2.59-.57,8.73,8.73,0,0,0,4-3.46,4,4,0,0,0,.66-2.1Z" transform="translate(-63.98 -101.49)" style="fill:#065497"/><path d="M265.45,618.5a3.21,3.21,0,0,1,1.77.48,1.46,1.46,0,0,1,.76,1.26v42.13a1.61,1.61,0,0,1-.76,1.24,2.84,2.84,0,0,1-1.77.57,2.69,2.69,0,0,1-1.77-.57,1.63,1.63,0,0,1-.69-1.24V620.24a1.47,1.47,0,0,1,.69-1.26A3,3,0,0,1,265.45,618.5Z" transform="translate(-63.98 -101.49)" style="fill:#065497"/><path d="M309.39,622a1.41,1.41,0,0,1,.75-1.32,3.56,3.56,0,0,1,1.77-.42,3.66,3.66,0,0,1,1.71.42,1.39,1.39,0,0,1,.81,1.32v29.45a16.11,16.11,0,0,1-1,6.1,10.65,10.65,0,0,1-2.79,4.06,10.8,10.8,0,0,1-4.18,2.26,19.71,19.71,0,0,1-10.34,0,10.43,10.43,0,0,1-4.14-2.26,10.73,10.73,0,0,1-2.77-4.06,16.11,16.11,0,0,1-1-6.1V622a1.4,1.4,0,0,1,.78-1.32,3.61,3.61,0,0,1,1.74-.42,3.68,3.68,0,0,1,1.75.42,1.4,1.4,0,0,1,.78,1.32v29.45c0,2.93.71,5.08,2.13,6.47a8.15,8.15,0,0,0,5.92,2.07,8.24,8.24,0,0,0,6-2.07c1.44-1.39,2.17-3.54,2.17-6.47Z" transform="translate(-63.98 -101.49)" style="fill:#065497"/><path d="M326.64,662.37a1.58,1.58,0,0,1-.76,1.24,2.84,2.84,0,0,1-1.77.57,2.69,2.69,0,0,1-1.77-.57,1.63,1.63,0,0,1-.69-1.24V637.43a1.47,1.47,0,0,1,.69-1.26,3,3,0,0,1,1.77-.48,2.72,2.72,0,0,1,1.59.48,1.48,1.48,0,0,1,.7,1.26v2.46a8.84,8.84,0,0,1,8.05-4.56,9.57,9.57,0,0,1,4.09.9,10.51,10.51,0,0,1,3.36,2.49,12.45,12.45,0,0,1,2.29,3.7,11.86,11.86,0,0,1,.84,4.45v15.5a1.49,1.49,0,0,1-.78,1.36,3.46,3.46,0,0,1-1.75.45,3.31,3.31,0,0,1-1.68-.45,1.49,1.49,0,0,1-.78-1.36v-15.5a6.54,6.54,0,0,0-.54-2.59A7.68,7.68,0,0,0,338,642a7.42,7.42,0,0,0-2.2-1.59,6.08,6.08,0,0,0-2.64-.61,6.24,6.24,0,0,0-2.38.48,6.67,6.67,0,0,0-3.6,3.61,7.19,7.19,0,0,0-.57,3Z" transform="translate(-63.98 -101.49)" style="fill:#065497"/><path d="M354.34,622.16a3.08,3.08,0,0,1,2.17.84,2.66,2.66,0,0,1,.9,2,2.72,2.72,0,0,1-.9,2,3,3,0,0,1-2.17.87,3.07,3.07,0,0,1-2.22-.87,2.72,2.72,0,0,1-.9-2,2.66,2.66,0,0,1,.9-2A3.13,3.13,0,0,1,354.34,622.16Zm0,13.53a3.27,3.27,0,0,1,1.78.48,1.44,1.44,0,0,1,.75,1.26v24.94a1.6,1.6,0,0,1-.75,1.24,2.89,2.89,0,0,1-1.78.57,2.72,2.72,0,0,1-1.74-.57,1.61,1.61,0,0,1-.72-1.24V637.43a1.46,1.46,0,0,1,.72-1.26A3.06,3.06,0,0,1,354.34,635.69Z" transform="translate(-63.98 -101.49)" style="fill:#065497"/><path d="M361.38,638.69a2.8,2.8,0,0,1-.24-1,1.42,1.42,0,0,1,.29-.84,2.51,2.51,0,0,1,.79-.69,5.53,5.53,0,0,1,1-.45,3.51,3.51,0,0,1,1.05-.18,2.07,2.07,0,0,1,1,.24,1.31,1.31,0,0,1,.63.72L373.58,657l7.51-20.19a2.58,2.58,0,0,1,.6-.87,1.46,1.46,0,0,1,1-.33,3.36,3.36,0,0,1,1,.18,5.53,5.53,0,0,1,1.05.45,3.14,3.14,0,0,1,.85.69,1.3,1.3,0,0,1,.36.84,2.13,2.13,0,0,1-.24,1l-9.86,24.95a1.77,1.77,0,0,1-.9.78,3.3,3.3,0,0,1-1.38.3,3.72,3.72,0,0,1-1.48-.27,1.58,1.58,0,0,1-.87-.81Z" transform="translate(-63.98 -101.49)" style="fill:#065497"/><path d="M401.1,635.33a12.08,12.08,0,0,1,4.39.81,11.49,11.49,0,0,1,3.7,2.28,10.9,10.9,0,0,1,2.52,3.52,10.59,10.59,0,0,1,.93,4.45,6.92,6.92,0,0,1-.45,2.79,3.51,3.51,0,0,1-1.2,1.5,3.58,3.58,0,0,1-1.71.6c-.64.06-1.3.09-2,.09H394.13v1.81a6.54,6.54,0,0,0,2.37,5.32,10.88,10.88,0,0,0,9,1.59,10.61,10.61,0,0,0,1.95-.81c.55-.3,1-.57,1.39-.81a2.08,2.08,0,0,1,1.11-.36,1.73,1.73,0,0,1,1.47.81,2.63,2.63,0,0,1,.57,1.47,2.06,2.06,0,0,1-.66,1.32,7.11,7.11,0,0,1-1.89,1.38,12.91,12.91,0,0,1-3,1.12,16,16,0,0,1-3.93.45,16.37,16.37,0,0,1-5.38-.84,12.82,12.82,0,0,1-4.21-2.38,11,11,0,0,1-2.77-3.66,11.26,11.26,0,0,1-1-4.78v-6.31a10.51,10.51,0,0,1,.93-4.36,11.65,11.65,0,0,1,2.56-3.64,12,12,0,0,1,3.81-2.46A12.2,12.2,0,0,1,401.1,635.33ZM405.25,648a4.17,4.17,0,0,0,2.1-.36c.36-.24.55-.76.55-1.57a6.61,6.61,0,0,0-.52-2.55,6.84,6.84,0,0,0-1.41-2.16,7.16,7.16,0,0,0-2.16-1.51,6.66,6.66,0,0,0-2.77-.57,6.9,6.9,0,0,0-2.67.51,8,8,0,0,0-2.2,1.39,6.22,6.22,0,0,0-2,4.65V648Z" transform="translate(-63.98 -101.49)" style="fill:#065497"/><path d="M430.79,639.83a7,7,0,0,0-2.82.61,7.15,7.15,0,0,0-2.43,1.74,8.84,8.84,0,0,0-1.72,2.79,10,10,0,0,0-.66,3.7v13.7a1.6,1.6,0,0,1-.75,1.24,2.84,2.84,0,0,1-1.77.57,2.7,2.7,0,0,1-1.78-.57,1.63,1.63,0,0,1-.69-1.24V637.43a1.47,1.47,0,0,1,.69-1.26,3,3,0,0,1,1.78-.48,2.68,2.68,0,0,1,1.62.48,1.49,1.49,0,0,1,.66,1.26v2.82a10.8,10.8,0,0,1,3-3.39,7.74,7.74,0,0,1,4.83-1.53h2a1.7,1.7,0,0,1,1.35.69,2.42,2.42,0,0,1,.57,1.59,2.31,2.31,0,0,1-.57,1.56,1.73,1.73,0,0,1-1.35.66Z" transform="translate(-63.98 -101.49)" style="fill:#065497"/><path d="M446.78,660.63c2.17,0,3.66-.39,4.48-1.17a3.54,3.54,0,0,0,1.23-2.62,3.59,3.59,0,0,0-1.08-2.79,8.51,8.51,0,0,0-2.7-1.62,32.3,32.3,0,0,0-3.55-1.12,15.36,15.36,0,0,1-3.55-1.35,8.3,8.3,0,0,1-2.7-2.28,6.36,6.36,0,0,1-1.08-3.94,9.27,9.27,0,0,1,.51-3A7.08,7.08,0,0,1,440,638a8.66,8.66,0,0,1,3.06-1.95,12.56,12.56,0,0,1,4.6-.75,17.78,17.78,0,0,1,3.1.27,15.43,15.43,0,0,1,2.73.72,6.56,6.56,0,0,1,1.93,1,1.64,1.64,0,0,1,.72,1.2,2.2,2.2,0,0,1-.15.72,5.26,5.26,0,0,1-.39.84,2,2,0,0,1-.63.7,1.43,1.43,0,0,1-.82.27,2.38,2.38,0,0,1-1-.27l-1.32-.61a12.14,12.14,0,0,0-1.77-.6,9.26,9.26,0,0,0-2.35-.27,7.35,7.35,0,0,0-2.55.39,4.62,4.62,0,0,0-1.68,1,4,4,0,0,0-.94,1.38,3.81,3.81,0,0,0-.3,1.41,2.7,2.7,0,0,0,1.09,2.34,9.65,9.65,0,0,0,2.73,1.33c1.1.36,2.28.71,3.55,1a14.53,14.53,0,0,1,3.54,1.47,8.28,8.28,0,0,1,2.74,2.56A7.53,7.53,0,0,1,457,656.6a7.25,7.25,0,0,1-2.59,5.89q-2.58,2.18-7.45,2.17a17.59,17.59,0,0,1-4-.42,13.69,13.69,0,0,1-3.12-1.09,6.71,6.71,0,0,1-2-1.47,2.45,2.45,0,0,1-.73-1.59,2.87,2.87,0,0,1,.49-1.47,1.43,1.43,0,0,1,1.26-.81,1.69,1.69,0,0,1,1.08.45,10.62,10.62,0,0,0,1.41,1,12.15,12.15,0,0,0,2.17,1A10.07,10.07,0,0,0,446.78,660.63Z" transform="translate(-63.98 -101.49)" style="fill:#065497"/><path d="M464.87,622.16A3.08,3.08,0,0,1,467,623a2.66,2.66,0,0,1,.9,2,2.72,2.72,0,0,1-.9,2,3,3,0,0,1-2.17.87,3.07,3.07,0,0,1-2.22-.87,2.72,2.72,0,0,1-.9-2,2.66,2.66,0,0,1,.9-2A3.13,3.13,0,0,1,464.87,622.16Zm0,13.53a3.25,3.25,0,0,1,1.78.48,1.44,1.44,0,0,1,.75,1.26v24.94a1.6,1.6,0,0,1-.75,1.24,2.87,2.87,0,0,1-1.78.57,2.72,2.72,0,0,1-1.74-.57,1.61,1.61,0,0,1-.72-1.24V637.43a1.46,1.46,0,0,1,.72-1.26A3.06,3.06,0,0,1,464.87,635.69Z" transform="translate(-63.98 -101.49)" style="fill:#065497"/><path d="M479.36,655.1a5,5,0,0,0,1.08,3.64c.72.7,2,1,3.91,1h1.86a2,2,0,0,1,1.59.66,2.23,2.23,0,0,1,.57,1.5,2.35,2.35,0,0,1-.57,1.53,1.93,1.93,0,0,1-1.59.7h-1.86c-3.25,0-5.72-.72-7.43-2.17s-2.55-3.74-2.55-6.91v-31a1.46,1.46,0,0,1,.81-1.27,3.23,3.23,0,0,1,3.39,0,1.45,1.45,0,0,1,.79,1.27v11.54h7.57a1.27,1.27,0,0,1,1.08.6,2.35,2.35,0,0,1,.42,1.38A2.21,2.21,0,0,1,488,639a1.29,1.29,0,0,1-1.08.57h-7.57Z" transform="translate(-63.98 -101.49)" style="fill:#065497"/><path d="M490.54,638.39a1.22,1.22,0,0,1-.24-.66,1.55,1.55,0,0,1,.33-.93,3.34,3.34,0,0,1,.81-.78,3.93,3.93,0,0,1,1.05-.51,3.51,3.51,0,0,1,1.05-.18,2.07,2.07,0,0,1,1,.24,1.31,1.31,0,0,1,.63.78l7.94,20.91,7.15-20.91a1.55,1.55,0,0,1,1.56-1,3.48,3.48,0,0,1,1,.18,4.62,4.62,0,0,1,1.08.51,3.15,3.15,0,0,1,.84.78,1.64,1.64,0,0,1,.33,1,1,1,0,0,1-.18.6l-9.14,24.46q-1,2.53-2,5.2a24.74,24.74,0,0,1-2.59,4.87,13.83,13.83,0,0,1-3.54,3.61,8.37,8.37,0,0,1-4.87,1.41,3.08,3.08,0,0,1-1.68-.42c-.45-.28-.66-.88-.66-1.8a3.6,3.6,0,0,1,.3-1.51,1.13,1.13,0,0,1,1.14-.66,5.31,5.31,0,0,0,2.67-.78,9.48,9.48,0,0,0,2.53-2.19,15.88,15.88,0,0,0,2.1-3.4,18.88,18.88,0,0,0,1.41-4.45Z" transform="translate(-63.98 -101.49)" style="fill:#065497"/><path d="M78.77,736.66a18.13,18.13,0,0,1-5.08-.69,10.47,10.47,0,0,1-4.12-2.25,10.62,10.62,0,0,1-2.73-4.06,16.58,16.58,0,0,1-1-6.1V705.47a16.55,16.55,0,0,1,1-6.1,10.1,10.1,0,0,1,6.85-6.31,18.78,18.78,0,0,1,10.16,0A10.69,10.69,0,0,1,88,695.31a10.29,10.29,0,0,1,2.77,4.06,16.55,16.55,0,0,1,1,6.1v18.09a16.58,16.58,0,0,1-1,6.1A10.37,10.37,0,0,1,88,733.72,10.69,10.69,0,0,1,83.85,736,18.18,18.18,0,0,1,78.77,736.66Zm7.93-31.19q0-4.4-2.1-6.46a7.92,7.92,0,0,0-5.83-2.08A7.8,7.8,0,0,0,73,699c-1.38,1.38-2.08,3.53-2.08,6.46v18.09c0,2.92.7,5.08,2.08,6.46a7.84,7.84,0,0,0,5.8,2.07A8,8,0,0,0,84.6,730c1.4-1.38,2.1-3.54,2.1-6.46Z" transform="translate(-63.98 -101.49)" style="fill:#010101"/><path d="M104.19,707.81h8.24a1.32,1.32,0,0,1,1.14.6,2.36,2.36,0,0,1,.42,1.39,2.21,2.21,0,0,1-.42,1.35,1.34,1.34,0,0,1-1.14.57h-8.24v22.84a1.44,1.44,0,0,1-.78,1.26,3.36,3.36,0,0,1-1.8.48,3,3,0,0,1-1.72-.48,1.47,1.47,0,0,1-.69-1.26v-32.7a11.34,11.34,0,0,1,3.16-8,10.93,10.93,0,0,1,3.39-2.41,9.85,9.85,0,0,1,4.09-.87H112a1.78,1.78,0,0,1,1.53.69,2.52,2.52,0,0,1,.51,1.54,2.39,2.39,0,0,1-.51,1.5A1.81,1.81,0,0,1,112,695h-1.27a6.53,6.53,0,0,0-2.58.51,6.27,6.27,0,0,0-2,1.38A6.77,6.77,0,0,0,104.7,699a6.16,6.16,0,0,0-.51,2.49Z" transform="translate(-63.98 -101.49)" style="fill:#010101"/><path d="M131.42,695a9.94,9.94,0,0,0-3.82.66,7.36,7.36,0,0,0-2.58,1.71,6.61,6.61,0,0,0-1.45,2.38,8.14,8.14,0,0,0-.45,2.64v5.41h7.22a1.32,1.32,0,0,1,1.14.6,2.36,2.36,0,0,1,.42,1.39,2.21,2.21,0,0,1-.42,1.35,1.34,1.34,0,0,1-1.14.57h-7.22v22.84a1.44,1.44,0,0,1-.78,1.26,3.36,3.36,0,0,1-1.8.48,2.92,2.92,0,0,1-1.71-.48,1.45,1.45,0,0,1-.69-1.26v-32a11.78,11.78,0,0,1,.87-4.44,11,11,0,0,1,2.55-3.82,13.05,13.05,0,0,1,4.12-2.68,14.41,14.41,0,0,1,5.62-1,19.42,19.42,0,0,1,3.42.3,15.6,15.6,0,0,1,3,.84A7.8,7.8,0,0,1,140,693a2,2,0,0,1,.84,1.5,3.37,3.37,0,0,1-.12.78,4.07,4.07,0,0,1-.36.93,2.9,2.9,0,0,1-.6.78,1.13,1.13,0,0,1-.78.33,1.86,1.86,0,0,1-1-.36q-.54-.36-1.38-.81a10.47,10.47,0,0,0-5.11-1.17Zm8.47,12.8a3.38,3.38,0,0,1,1.84.48,1.45,1.45,0,0,1,.75,1.27V734.5a1.58,1.58,0,0,1-.75,1.23,3,3,0,0,1-1.84.57,2.6,2.6,0,0,1-1.71-.57,1.61,1.61,0,0,1-.69-1.23V709.56a1.47,1.47,0,0,1,.69-1.27A2.92,2.92,0,0,1,139.89,707.81Z" transform="translate(-63.98 -101.49)" style="fill:#010101"/><path d="M160.57,736.78a14.46,14.46,0,0,1-5.38-.9,10.29,10.29,0,0,1-3.73-2.46,10.07,10.07,0,0,1-2.19-3.7,14.26,14.26,0,0,1-.72-4.6v-6a14.16,14.16,0,0,1,.72-4.54,10.24,10.24,0,0,1,2.19-3.72,10.12,10.12,0,0,1,3.73-2.5,14.28,14.28,0,0,1,5.32-.9,15.4,15.4,0,0,1,3.6.39,12.49,12.49,0,0,1,2.8,1,5.74,5.74,0,0,1,1.8,1.36,2.26,2.26,0,0,1,.63,1.41,2.81,2.81,0,0,1-.6,1.62,1.79,1.79,0,0,1-1.5.84,1.55,1.55,0,0,1-.93-.33,11.66,11.66,0,0,0-1.14-.72,9.79,9.79,0,0,0-1.72-.72,8.52,8.52,0,0,0-2.58-.33q-3.74,0-5.53,1.89a7.33,7.33,0,0,0-1.8,5.26v6a7.31,7.31,0,0,0,1.8,5.26q1.8,1.89,5.59,1.89a9.07,9.07,0,0,0,2.67-.33,8.05,8.05,0,0,0,1.75-.75q.69-.42,1.17-.75a1.69,1.69,0,0,1,1-.33,1.91,1.91,0,0,1,1.62.81,2.68,2.68,0,0,1,.6,1.59A2.26,2.26,0,0,1,169,734a6.43,6.43,0,0,1-1.86,1.38,12,12,0,0,1-2.89,1A16.47,16.47,0,0,1,160.57,736.78Z" transform="translate(-63.98 -101.49)" style="fill:#010101"/><path d="M185.21,707.45a12.16,12.16,0,0,1,4.39.81,11.3,11.3,0,0,1,3.69,2.29,10.68,10.68,0,0,1,3.46,8,7,7,0,0,1-.45,2.8,3.51,3.51,0,0,1-1.2,1.5,3.62,3.62,0,0,1-1.71.6c-.65.06-1.31.09-2,.09H178.24v1.8a6.52,6.52,0,0,0,2.37,5.32,9.39,9.39,0,0,0,6.16,2,9.55,9.55,0,0,0,2.83-.36,10.61,10.61,0,0,0,2-.81q.81-.45,1.38-.81a2.08,2.08,0,0,1,1.12-.36,1.73,1.73,0,0,1,1.47.81,2.63,2.63,0,0,1,.57,1.47,2.06,2.06,0,0,1-.66,1.33,7,7,0,0,1-1.9,1.38,13.3,13.3,0,0,1-3,1.11,16,16,0,0,1-3.94.45,16.45,16.45,0,0,1-5.38-.84,12.68,12.68,0,0,1-4.2-2.37,10.83,10.83,0,0,1-2.77-3.67,11.2,11.2,0,0,1-1-4.78v-6.31a10.58,10.58,0,0,1,.93-4.36,11.45,11.45,0,0,1,2.56-3.63,12,12,0,0,1,3.81-2.47A12.16,12.16,0,0,1,185.21,707.45Zm4.15,12.68a4.17,4.17,0,0,0,2.1-.36q.54-.36.54-1.56a6.6,6.6,0,0,0-.51-2.55,6.78,6.78,0,0,0-1.41-2.17,7,7,0,0,0-2.16-1.5,6.7,6.7,0,0,0-2.77-.57,6.9,6.9,0,0,0-2.67.51,7.44,7.44,0,0,0-2.2,1.38,6.13,6.13,0,0,0-1.5,2.08,6.21,6.21,0,0,0-.54,2.58v2.16Z" transform="translate(-63.98 -101.49)" style="fill:#010101"/><path d="M214.9,712a7,7,0,0,0-2.82.6,7.1,7.1,0,0,0-2.44,1.74,9.05,9.05,0,0,0-1.71,2.8,9.86,9.86,0,0,0-.66,3.69V734.5a1.58,1.58,0,0,1-.75,1.23,2.85,2.85,0,0,1-1.78.57,2.69,2.69,0,0,1-1.77-.57,1.61,1.61,0,0,1-.69-1.23V709.56a1.47,1.47,0,0,1,.69-1.27,3,3,0,0,1,1.77-.48,2.69,2.69,0,0,1,1.63.48,1.49,1.49,0,0,1,.66,1.27v2.82a11,11,0,0,1,3-3.4,7.79,7.79,0,0,1,4.84-1.53h2a1.7,1.7,0,0,1,1.35.69,2.42,2.42,0,0,1,.57,1.59,2.32,2.32,0,0,1-.57,1.57A1.73,1.73,0,0,1,217,712Z" transform="translate(-63.98 -101.49)" style="fill:#010101"/><path d="M230.89,732.76c2.16,0,3.66-.4,4.48-1.18A3.54,3.54,0,0,0,236.6,729a3.62,3.62,0,0,0-1.08-2.8,8.56,8.56,0,0,0-2.71-1.62,29.55,29.55,0,0,0-3.54-1.11,15.19,15.19,0,0,1-3.55-1.35,8.33,8.33,0,0,1-2.7-2.29,6.27,6.27,0,0,1-1.09-3.93,9.28,9.28,0,0,1,.51-3,7.15,7.15,0,0,1,1.69-2.7,8.54,8.54,0,0,1,3.06-2,12.56,12.56,0,0,1,4.6-.75,18,18,0,0,1,3.1.27,15.43,15.43,0,0,1,2.73.72,6.62,6.62,0,0,1,1.92,1,1.69,1.69,0,0,1,.73,1.21,2.2,2.2,0,0,1-.15.72,7.89,7.89,0,0,1-.39.84,2.23,2.23,0,0,1-.64.69,1.4,1.4,0,0,1-.81.27,2.38,2.38,0,0,1-1-.27l-1.32-.6a11.89,11.89,0,0,0-1.78-.6,9.18,9.18,0,0,0-2.34-.27,7.35,7.35,0,0,0-2.55.39,4.56,4.56,0,0,0-1.69,1,4.1,4.1,0,0,0-.93,1.38,3.81,3.81,0,0,0-.3,1.42,2.7,2.7,0,0,0,1.08,2.34,10,10,0,0,0,2.74,1.32q1.65.54,3.54,1a14.47,14.47,0,0,1,3.55,1.48,8.32,8.32,0,0,1,2.73,2.55,7.46,7.46,0,0,1,1.09,4.3,7.29,7.29,0,0,1-2.59,5.89q-2.58,2.16-7.45,2.16a17.52,17.52,0,0,1-4-.42,14.2,14.2,0,0,1-3.12-1.08,6.76,6.76,0,0,1-2-1.47,2.45,2.45,0,0,1-.72-1.6,2.94,2.94,0,0,1,.48-1.47,1.43,1.43,0,0,1,1.27-.81,1.69,1.69,0,0,1,1.08.45,10.62,10.62,0,0,0,1.41,1,12.35,12.35,0,0,0,2.16,1A10.11,10.11,0,0,0,230.89,732.76Z" transform="translate(-63.98 -101.49)" style="fill:#010101"/><path d="M247.48,691.76a3.19,3.19,0,0,1,3.12,3.13,8.17,8.17,0,0,1-.6,2.31q-.6,1.66-2.1,5a1.14,1.14,0,0,1-.54.6,1.49,1.49,0,0,1-.66.18,2.14,2.14,0,0,1-1.23-.39,1.19,1.19,0,0,1-.57-1.05,1.14,1.14,0,0,1,.11-.6l1.27-3.13a3.12,3.12,0,0,1-1.38-1.14,3,3,0,0,1-.55-1.8,3.07,3.07,0,0,1,.88-2.19A2.91,2.91,0,0,1,247.48,691.76Z" transform="translate(-63.98 -101.49)" style="fill:#010101"/><path d="M268.33,736.3a4.15,4.15,0,0,1-2-.57,1.71,1.71,0,0,1-1-1.53,2,2,0,0,1,.12-.48l12.26-40a2.17,2.17,0,0,1,1.2-1.32,4.5,4.5,0,0,1,1.93-.43,4.12,4.12,0,0,1,1.92.46,2.29,2.29,0,0,1,1.2,1.29l12.26,40a.66.66,0,0,0,0,.21.66.66,0,0,1,0,.21,1.81,1.81,0,0,1-1,1.53,4,4,0,0,1-2.1.63A2.29,2.29,0,0,1,292,736a1.39,1.39,0,0,1-.67-.87l-2.64-9H272.84l-2.64,9A1.72,1.72,0,0,1,268.33,736.3Zm19.12-14.24-6.67-22.6L274,722.06Z" transform="translate(-63.98 -101.49)" style="fill:#010101"/><path d="M308.78,732.76c2.17,0,3.66-.4,4.48-1.18a3.54,3.54,0,0,0,1.23-2.61,3.62,3.62,0,0,0-1.08-2.8,8.51,8.51,0,0,0-2.7-1.62,29.72,29.72,0,0,0-3.55-1.11,15.54,15.54,0,0,1-3.55-1.35,8.33,8.33,0,0,1-2.7-2.29,6.33,6.33,0,0,1-1.08-3.93,9.28,9.28,0,0,1,.51-3,7.12,7.12,0,0,1,1.68-2.7,8.5,8.5,0,0,1,3.07-2,12.48,12.48,0,0,1,4.6-.75,17.75,17.75,0,0,1,3.09.27,15.79,15.79,0,0,1,2.74.72,6.62,6.62,0,0,1,1.92,1,1.67,1.67,0,0,1,.72,1.21,2.2,2.2,0,0,1-.15.72,5.26,5.26,0,0,1-.39.84,2.09,2.09,0,0,1-.63.69,1.4,1.4,0,0,1-.81.27,2.46,2.46,0,0,1-1-.27l-1.32-.6a12.14,12.14,0,0,0-1.77-.6,9.2,9.2,0,0,0-2.35-.27,7.35,7.35,0,0,0-2.55.39,4.6,4.6,0,0,0-1.68,1,4.1,4.1,0,0,0-.93,1.38,3.81,3.81,0,0,0-.3,1.42,2.7,2.7,0,0,0,1.08,2.34,9.92,9.92,0,0,0,2.73,1.32c1.1.36,2.29.71,3.55,1a14.56,14.56,0,0,1,3.54,1.48,8.26,8.26,0,0,1,2.74,2.55,7.54,7.54,0,0,1,1.08,4.3,7.28,7.28,0,0,1-2.58,5.89c-1.73,1.44-4.21,2.16-7.46,2.16a17.43,17.43,0,0,1-4-.42,14.3,14.3,0,0,1-3.13-1.08,6.71,6.71,0,0,1-2-1.47,2.45,2.45,0,0,1-.72-1.6,2.94,2.94,0,0,1,.48-1.47,1.43,1.43,0,0,1,1.26-.81,1.69,1.69,0,0,1,1.08.45,10.62,10.62,0,0,0,1.41,1,12.48,12.48,0,0,0,2.17,1A10,10,0,0,0,308.78,732.76Z" transform="translate(-63.98 -101.49)" style="fill:#010101"/><path d="M332.34,732.76c2.17,0,3.66-.4,4.48-1.18a3.54,3.54,0,0,0,1.23-2.61,3.62,3.62,0,0,0-1.08-2.8,8.51,8.51,0,0,0-2.7-1.62,29.72,29.72,0,0,0-3.55-1.11,15.54,15.54,0,0,1-3.55-1.35,8.33,8.33,0,0,1-2.7-2.29,6.33,6.33,0,0,1-1.08-3.93,9.28,9.28,0,0,1,.51-3,7.12,7.12,0,0,1,1.68-2.7,8.59,8.59,0,0,1,3.07-2,12.48,12.48,0,0,1,4.6-.75,17.75,17.75,0,0,1,3.09.27,15.79,15.79,0,0,1,2.74.72,6.62,6.62,0,0,1,1.92,1,1.67,1.67,0,0,1,.72,1.21,2.2,2.2,0,0,1-.15.72,5.26,5.26,0,0,1-.39.84,2.09,2.09,0,0,1-.63.69,1.4,1.4,0,0,1-.81.27,2.46,2.46,0,0,1-1-.27l-1.32-.6a12.14,12.14,0,0,0-1.77-.6,9.18,9.18,0,0,0-2.34-.27,7.37,7.37,0,0,0-2.56.39,4.6,4.6,0,0,0-1.68,1,4.1,4.1,0,0,0-.93,1.38,3.81,3.81,0,0,0-.3,1.42,2.7,2.7,0,0,0,1.08,2.34,9.92,9.92,0,0,0,2.73,1.32c1.1.36,2.29.71,3.55,1a14.56,14.56,0,0,1,3.54,1.48,8.26,8.26,0,0,1,2.74,2.55,7.54,7.54,0,0,1,1.08,4.3,7.28,7.28,0,0,1-2.58,5.89c-1.73,1.44-4.21,2.16-7.46,2.16a17.43,17.43,0,0,1-4-.42,14.3,14.3,0,0,1-3.13-1.08,6.71,6.71,0,0,1-2-1.47,2.45,2.45,0,0,1-.72-1.6,2.94,2.94,0,0,1,.48-1.47,1.43,1.43,0,0,1,1.26-.81,1.69,1.69,0,0,1,1.08.45,10.16,10.16,0,0,0,1.42,1,12.35,12.35,0,0,0,2.16,1A10,10,0,0,0,332.34,732.76Z" transform="translate(-63.98 -101.49)" style="fill:#010101"/><path d="M358.73,707.45a11.86,11.86,0,0,1,8.35,3.4,12.12,12.12,0,0,1,2.59,3.69,10.63,10.63,0,0,1,1,4.45v6.13a10.43,10.43,0,0,1-1,4.39,12.68,12.68,0,0,1-2.59,3.73,12.43,12.43,0,0,1-3.78,2.58,11.15,11.15,0,0,1-4.57,1,10.94,10.94,0,0,1-4.54-1,12.54,12.54,0,0,1-3.75-2.58,12.68,12.68,0,0,1-2.59-3.73,10.43,10.43,0,0,1-1-4.39V719a10.78,10.78,0,0,1,.93-4.39,11.7,11.7,0,0,1,2.56-3.69,12.4,12.4,0,0,1,3.75-2.53A11.39,11.39,0,0,1,358.73,707.45ZM365.64,719a6.49,6.49,0,0,0-.54-2.58,7.6,7.6,0,0,0-1.47-2.26,7.17,7.17,0,0,0-2.2-1.59,6.2,6.2,0,0,0-2.7-.6,6.28,6.28,0,0,0-2.71.6,6.88,6.88,0,0,0-2.16,1.59,7.92,7.92,0,0,0-1.44,2.26,6.49,6.49,0,0,0-.54,2.58v6.13a6.9,6.9,0,0,0,.54,2.68,7.57,7.57,0,0,0,1.47,2.28,7.29,7.29,0,0,0,2.17,1.59,6,6,0,0,0,2.67.6,6.08,6.08,0,0,0,2.68-.6,7.78,7.78,0,0,0,2.19-1.59,7.29,7.29,0,0,0,1.5-2.28,6.9,6.9,0,0,0,.54-2.68Z" transform="translate(-63.98 -101.49)" style="fill:#010101"/><path d="M387.64,736.78a14.5,14.5,0,0,1-5.38-.9,10.29,10.29,0,0,1-3.73-2.46,10.07,10.07,0,0,1-2.19-3.7,14.26,14.26,0,0,1-.72-4.6v-6a14.16,14.16,0,0,1,.72-4.54,10.24,10.24,0,0,1,2.19-3.72,10.12,10.12,0,0,1,3.73-2.5,14.31,14.31,0,0,1,5.32-.9,15.54,15.54,0,0,1,3.61.39,12.58,12.58,0,0,1,2.79,1,5.74,5.74,0,0,1,1.8,1.36,2.26,2.26,0,0,1,.63,1.41,2.81,2.81,0,0,1-.6,1.62,1.79,1.79,0,0,1-1.5.84,1.55,1.55,0,0,1-.93-.33,11.66,11.66,0,0,0-1.14-.72,9.19,9.19,0,0,0-1.72-.72,8.52,8.52,0,0,0-2.58-.33q-3.74,0-5.53,1.89a7.33,7.33,0,0,0-1.8,5.26v6a7.31,7.31,0,0,0,1.8,5.26c1.2,1.26,3.07,1.89,5.59,1.89a9.07,9.07,0,0,0,2.67-.33,7.84,7.84,0,0,0,1.75-.75q.69-.42,1.17-.75a1.69,1.69,0,0,1,1-.33,1.91,1.91,0,0,1,1.62.81,2.68,2.68,0,0,1,.6,1.59,2.26,2.26,0,0,1-.66,1.48,6.43,6.43,0,0,1-1.86,1.38,12.08,12.08,0,0,1-2.88,1A16.62,16.62,0,0,1,387.64,736.78Z" transform="translate(-63.98 -101.49)" style="fill:#010101"/><path d="M404.17,694.29a3.05,3.05,0,0,1,2.16.84,2.62,2.62,0,0,1,.9,2,2.74,2.74,0,0,1-.9,2,3,3,0,0,1-2.16.87,3.09,3.09,0,0,1-2.23-.87,2.74,2.74,0,0,1-.9-2,2.62,2.62,0,0,1,.9-2A3.16,3.16,0,0,1,404.17,694.29Zm0,13.52a3.21,3.21,0,0,1,1.77.48,1.45,1.45,0,0,1,.75,1.27V734.5a1.58,1.58,0,0,1-.75,1.23,2.84,2.84,0,0,1-1.77.57,2.76,2.76,0,0,1-1.75-.57,1.59,1.59,0,0,1-.72-1.23V709.56a1.46,1.46,0,0,1,.72-1.27A3.12,3.12,0,0,1,404.17,707.81Z" transform="translate(-63.98 -101.49)" style="fill:#010101"/><path d="M422.38,707.45a12.89,12.89,0,0,1,5.32,1,10,10,0,0,1,3.57,2.62,9.71,9.71,0,0,1,2,3.72,15.77,15.77,0,0,1,.6,4.33V734.5a1.55,1.55,0,0,1-.69,1.29,2.91,2.91,0,0,1-1.78.51,2.54,2.54,0,0,1-1.65-.51,1.59,1.59,0,0,1-.63-1.29v-2.41a17.29,17.29,0,0,1-3.79,3.25,9.5,9.5,0,0,1-5.29,1.44,10.09,10.09,0,0,1-3.15-.48,7.3,7.3,0,0,1-2.59-1.47,6.77,6.77,0,0,1-1.74-2.5,9.1,9.1,0,0,1-.63-3.54,7.51,7.51,0,0,1,1-4.12,7.28,7.28,0,0,1,2.89-2.55,13.8,13.8,0,0,1,4.44-1.33,41.73,41.73,0,0,1,5.72-.36h2.88v-1.26a10,10,0,0,0-.36-2.64,7.43,7.43,0,0,0-1.14-2.41,5.81,5.81,0,0,0-2.05-1.74,6.53,6.53,0,0,0-3.06-.66,11.14,11.14,0,0,0-2.65.27,10.49,10.49,0,0,0-1.8.6q-.72.33-1.2.6a1.85,1.85,0,0,1-.9.27,1.54,1.54,0,0,1-1.39-.84,3.36,3.36,0,0,1-.48-1.68,1.78,1.78,0,0,1,.79-1.36,7.56,7.56,0,0,1,2-1.11,14.64,14.64,0,0,1,2.73-.75A17,17,0,0,1,422.38,707.45Zm6.49,16h-2.1c-1.29,0-2.52,0-3.7.15a12.65,12.65,0,0,0-3.13.63,5,5,0,0,0-2.16,1.41,3.78,3.78,0,0,0-.81,2.56,4.17,4.17,0,0,0,1.32,3.42,5.05,5.05,0,0,0,3.31,1.09,6.5,6.5,0,0,0,2.58-.58,9,9,0,0,0,2.35-1.47,8.67,8.67,0,0,0,1.68-2,4,4,0,0,0,.66-2.11Z" transform="translate(-63.98 -101.49)" style="fill:#010101"/><path d="M445.58,727.23a5,5,0,0,0,1.08,3.63c.72.7,2,1,3.91,1h1.86a2,2,0,0,1,1.59.66,2.28,2.28,0,0,1,.57,1.51,2.35,2.35,0,0,1-.57,1.53,2,2,0,0,1-1.59.69h-1.86c-3.25,0-5.72-.72-7.43-2.16s-2.55-3.75-2.55-6.91v-31a1.43,1.43,0,0,1,.81-1.26,3.2,3.2,0,0,1,1.65-.48,3.29,3.29,0,0,1,1.75.48,1.44,1.44,0,0,1,.78,1.26v11.54h7.57a1.27,1.27,0,0,1,1.08.6,2.36,2.36,0,0,1,.42,1.39,2.21,2.21,0,0,1-.42,1.35,1.29,1.29,0,0,1-1.08.57h-7.57Z" transform="translate(-63.98 -101.49)" style="fill:#010101"/><path d="M461.81,694.29a3.05,3.05,0,0,1,2.16.84,2.62,2.62,0,0,1,.9,2,2.74,2.74,0,0,1-.9,2,3,3,0,0,1-2.16.87,3.08,3.08,0,0,1-2.23-.87,2.74,2.74,0,0,1-.9-2,2.62,2.62,0,0,1,.9-2A3.14,3.14,0,0,1,461.81,694.29Zm0,13.52a3.21,3.21,0,0,1,1.77.48,1.45,1.45,0,0,1,.75,1.27V734.5a1.58,1.58,0,0,1-.75,1.23,2.84,2.84,0,0,1-1.77.57,2.73,2.73,0,0,1-1.75-.57,1.59,1.59,0,0,1-.72-1.23V709.56a1.46,1.46,0,0,1,.72-1.27A3.08,3.08,0,0,1,461.81,707.81Z" transform="translate(-63.98 -101.49)" style="fill:#010101"/><path d="M482.18,707.45a11.79,11.79,0,0,1,4.57.9,12,12,0,0,1,3.79,2.5,12.27,12.27,0,0,1,2.58,3.69,10.63,10.63,0,0,1,1,4.45v6.13a10.43,10.43,0,0,1-1,4.39,12.84,12.84,0,0,1-2.58,3.73,12.6,12.6,0,0,1-3.79,2.58,11.15,11.15,0,0,1-4.57,1,11,11,0,0,1-4.54-1,12.54,12.54,0,0,1-3.75-2.58,12.87,12.87,0,0,1-2.59-3.73,10.43,10.43,0,0,1-1-4.39V719a10.78,10.78,0,0,1,.93-4.39,11.7,11.7,0,0,1,2.56-3.69,12.4,12.4,0,0,1,3.75-2.53A11.39,11.39,0,0,1,482.18,707.45ZM489.09,719a6.49,6.49,0,0,0-.54-2.58,7.6,7.6,0,0,0-1.47-2.26,7.25,7.25,0,0,0-2.19-1.59,6.28,6.28,0,0,0-2.71-.6,6.2,6.2,0,0,0-2.7.6,6.93,6.93,0,0,0-2.17,1.59,7.92,7.92,0,0,0-1.44,2.26,6.49,6.49,0,0,0-.54,2.58v6.13a6.9,6.9,0,0,0,.54,2.68,7.57,7.57,0,0,0,1.47,2.28,7.29,7.29,0,0,0,2.17,1.59,6,6,0,0,0,2.67.6,6.08,6.08,0,0,0,2.68-.6,7.78,7.78,0,0,0,2.19-1.59,7.29,7.29,0,0,0,1.5-2.28,6.9,6.9,0,0,0,.54-2.68Z" transform="translate(-63.98 -101.49)" style="fill:#010101"/><path d="M505.08,734.5a1.58,1.58,0,0,1-.75,1.23,2.84,2.84,0,0,1-1.77.57,2.7,2.7,0,0,1-1.78-.57,1.61,1.61,0,0,1-.69-1.23V709.56a1.47,1.47,0,0,1,.69-1.27,3,3,0,0,1,1.78-.48,2.72,2.72,0,0,1,1.59.48,1.47,1.47,0,0,1,.69,1.27V712a9,9,0,0,1,2.94-3.16,8.82,8.82,0,0,1,5.11-1.41,9.51,9.51,0,0,1,4.09.9,10.58,10.58,0,0,1,3.37,2.5,12.18,12.18,0,0,1,2.28,3.69,11.93,11.93,0,0,1,.84,4.45V734.5a1.46,1.46,0,0,1-.78,1.35,3.42,3.42,0,0,1-1.74.45,3.34,3.34,0,0,1-1.69-.45,1.46,1.46,0,0,1-.78-1.35V719a6.49,6.49,0,0,0-.54-2.58,7.6,7.6,0,0,0-1.47-2.26,7.25,7.25,0,0,0-2.19-1.59,6.12,6.12,0,0,0-5-.12,6.64,6.64,0,0,0-2.11,1.38,6.84,6.84,0,0,0-1.5,2.23,7.34,7.34,0,0,0-.57,2.94Z" transform="translate(-63.98 -101.49)" style="fill:#010101"/></svg>